<svg width="34" height="28" viewBox="0 0 34 28" fill="none" xmlns="http://www.w3.org/2000/svg">
<path d="M32.7147 11.2629H31.4116V11.2049H16.8516V16.795H25.9945C24.6606 20.0492 21.0764 22.3852 16.8516 22.3852C11.4911 22.3852 7.14494 18.6307 7.14494 14C7.14494 9.36926 11.4911 5.61479 16.8516 5.61479C19.326 5.61479 21.5771 6.42116 23.2912 7.73834L27.8671 3.78542C24.9777 1.45922 21.1128 0.0246582 16.8516 0.0246582C7.91743 0.0246582 0.673828 6.28211 0.673828 14C0.673828 21.7178 7.91743 27.9753 16.8516 27.9753C25.7858 27.9753 33.0294 21.7178 33.0294 14C33.0294 13.0629 32.9178 12.1482 32.7147 11.2629Z" fill="#FFC107"/>
<path d="M2.53906 7.49517L7.85427 10.8625C9.29248 7.78655 12.7756 5.61479 16.8515 5.61479C19.3259 5.61479 21.5771 6.42116 23.2911 7.73834L27.867 3.78542C24.9776 1.45922 21.1128 0.0246582 16.8515 0.0246582C10.6377 0.0246582 5.24884 3.05521 2.53906 7.49517Z" fill="#FF3D00"/>
<path d="M16.8517 27.9753C21.0305 27.9753 24.8274 26.5939 27.6981 24.3474L22.6911 20.6872C21.0669 21.75 19.0479 22.3852 16.8517 22.3852C12.6439 22.3852 9.07103 20.0674 7.72504 16.8328L2.44946 20.3441C5.12689 24.87 10.5642 27.9753 16.8517 27.9753Z" fill="#4CAF50"/>
<path d="M32.7147 11.2629H31.4116V11.2049H16.8516V16.795H25.9944C25.3538 18.3582 24.1898 19.7061 22.6885 20.6878C22.6893 20.6871 22.6901 20.6872 22.6909 20.6865L27.698 24.3466C27.3437 24.6247 33.0293 20.9876 33.0293 14C33.0293 13.0629 32.9177 12.1482 32.7147 11.2629Z" fill="#1976D2"/>
</svg>
