<svg width="34" height="29" viewBox="0 0 34 29" fill="none" xmlns="http://www.w3.org/2000/svg">
<path d="M32.8415 12.1562H31.5384V12.0982H16.9784V17.6884H26.1213C24.7874 20.9425 21.2032 23.2785 16.9784 23.2785C11.6179 23.2785 7.27171 19.524 7.27171 14.8933C7.27171 10.2626 11.6179 6.5081 16.9784 6.5081C19.4528 6.5081 21.7039 7.31447 23.4179 8.63165L27.9938 4.67873C25.1045 2.35254 21.2396 0.917969 16.9784 0.917969C8.0442 0.917969 0.800598 7.17542 0.800598 14.8933C0.800598 22.6112 8.0442 28.8686 16.9784 28.8686C25.9126 28.8686 33.1562 22.6112 33.1562 14.8933C33.1562 13.9562 33.0445 13.0416 32.8415 12.1562Z" fill="#FFC107"/>
<path d="M2.66589 8.38848L7.9811 11.7558C9.41931 8.67986 12.9024 6.5081 16.9784 6.5081C19.4528 6.5081 21.7039 7.31447 23.4179 8.63165L27.9938 4.67873C25.1045 2.35254 21.2396 0.917969 16.9784 0.917969C10.7645 0.917969 5.37567 3.94852 2.66589 8.38848Z" fill="#FF3D00"/>
<path d="M16.9784 28.8687C21.1572 28.8687 24.9541 27.4872 27.8248 25.2407L22.8178 21.5805C21.1936 22.6434 19.1746 23.2785 16.9784 23.2785C12.7706 23.2785 9.19774 20.9607 7.85175 17.7261L2.57617 21.2374C5.25359 25.7633 10.6909 28.8687 16.9784 28.8687Z" fill="#4CAF50"/>
<path d="M32.8416 12.1562H31.5385V12.0982H16.9785V17.6883H26.1213C25.4807 19.2515 24.3167 20.5994 22.8154 21.5812C22.8162 21.5805 22.817 21.5805 22.8178 21.5798L27.8248 25.2399C27.4706 25.518 33.1562 21.8809 33.1562 14.8933C33.1562 13.9562 33.0446 13.0415 32.8416 12.1562Z" fill="#1976D2"/>
</svg>
