<svg width="37" height="36" viewBox="0 0 37 36" fill="none" xmlns="http://www.w3.org/2000/svg">
<rect x="0.015625" width="36" height="36" rx="18" fill="#5EC389"/>
<g clip-path="url(#clip0_11_2022)">
<path d="M26.1336 20.7855C26.0789 20.9459 26.0204 21.1049 25.9581 21.2625L25.9206 21.357C25.9231 21.35 25.9256 21.343 25.9281 21.336C25.8966 21.4305 25.8471 21.522 25.8051 21.612C25.6446 21.948 25.5021 22.2645 25.5096 22.647C25.5156 23.004 25.6266 23.3715 25.8441 23.655C25.9491 23.796 26.0646 23.9175 26.1876 24.0435L26.5146 24.3705C26.5221 24.3795 26.5341 24.3855 26.5416 24.3975C26.5521 24.4075 26.5621 24.418 26.5716 24.429C26.6241 24.4815 26.5656 24.474 26.5371 24.387C26.5431 24.402 26.5641 24.435 26.5746 24.4515C26.6451 24.5625 26.5401 24.3015 26.5641 24.4305C26.5673 24.4558 26.5738 24.4805 26.5836 24.504C26.5311 24.369 26.5731 24.3825 26.5731 24.471C26.5731 24.492 26.5641 24.621 26.5746 24.492C26.5851 24.3675 26.5701 24.4875 26.5641 24.5115C26.5506 24.579 26.5116 24.5355 26.5911 24.456C26.5761 24.471 26.5566 24.5175 26.5461 24.54C26.5071 24.618 26.6631 24.4155 26.5701 24.513L26.5431 24.543C26.5392 24.5471 26.5352 24.5511 26.5311 24.555C26.4891 24.6 26.4426 24.6435 26.3961 24.69L24.5811 26.505L24.5391 26.55L24.5301 26.5575L24.5001 26.5845C24.4071 26.6745 24.6321 26.5035 24.4941 26.5785C24.3981 26.634 24.4641 26.556 24.5346 26.5665C24.5241 26.5635 24.4701 26.586 24.4611 26.5875C24.3336 26.6265 24.6021 26.583 24.5136 26.583H24.4221C24.3471 26.5845 24.4026 26.538 24.4881 26.5935C24.4686 26.58 24.4221 26.574 24.3996 26.5695C24.3186 26.55 24.5496 26.6565 24.4416 26.5845C24.3876 26.5515 24.3381 26.4825 24.4491 26.607C24.2751 26.415 24.0771 26.2365 23.8896 26.052C23.4186 25.587 22.6971 25.3815 22.0596 25.6095C21.8871 25.6695 21.7251 25.7595 21.5571 25.836C21.4821 25.8705 21.4071 25.911 21.3276 25.9395C21.3351 25.9366 21.3426 25.9336 21.3501 25.9305L21.2091 25.9875C20.9001 26.1075 20.5596 26.187 20.2896 26.388C20.0502 26.5625 19.8563 26.7921 19.7244 27.0574C19.5926 27.3226 19.5266 27.6158 19.5321 27.912V28.5645C19.5321 28.5855 19.5231 28.7145 19.5336 28.5855C19.5471 28.44 19.5126 28.6305 19.5126 28.638C19.5096 28.6245 19.5936 28.4865 19.5396 28.5765L19.5051 28.6365C19.4481 28.752 19.6191 28.527 19.5261 28.614L19.4781 28.662C19.4106 28.737 19.5186 28.6245 19.5321 28.6215C19.5081 28.6275 19.4616 28.662 19.4406 28.6755C19.3746 28.713 19.4166 28.6425 19.5006 28.6485C19.4645 28.6525 19.4291 28.6616 19.3956 28.6755C19.4826 28.623 19.5456 28.662 19.4481 28.665H16.5846C16.5606 28.665 16.5321 28.659 16.5096 28.662C16.6761 28.6575 16.6326 28.686 16.5786 28.668C16.567 28.6655 16.5554 28.6625 16.5441 28.659C16.4766 28.638 16.4991 28.647 16.6056 28.689C16.5906 28.677 16.5606 28.668 16.5456 28.6575C16.5306 28.6485 16.5006 28.6245 16.4856 28.62C16.5741 28.6935 16.5936 28.7055 16.5396 28.6605C16.5246 28.65 16.5156 28.6365 16.5006 28.623C16.4361 28.566 16.4991 28.5525 16.5276 28.6665C16.5231 28.65 16.4976 28.6215 16.4901 28.6065C16.4796 28.587 16.4196 28.482 16.4796 28.5915C16.5336 28.6935 16.4901 28.596 16.4796 28.569C16.4571 28.503 16.5096 28.512 16.4856 28.6395C16.4826 28.647 16.4826 28.554 16.4826 28.5645V28.0695C16.4826 27.942 16.4856 27.8115 16.4721 27.6855C16.4334 27.3116 16.2847 26.9577 16.0446 26.6685C15.8226 26.397 15.5136 26.2335 15.1881 26.1195C15.0441 26.0701 14.9015 26.0166 14.7606 25.959L14.6436 25.9095C14.5461 25.869 14.7936 25.977 14.6436 25.9095C14.5686 25.875 14.4891 25.8435 14.4141 25.8045C14.0676 25.641 13.7346 25.488 13.3401 25.509C12.9936 25.5285 12.6501 25.6305 12.3681 25.839C12.1056 26.034 11.8866 26.283 11.6541 26.514L11.6241 26.544L11.5941 26.574C11.4951 26.6685 11.6991 26.514 11.6196 26.55C11.5986 26.5605 11.5536 26.58 11.5356 26.595C11.6136 26.517 11.6601 26.5545 11.5926 26.568C11.5801 26.5704 11.568 26.5745 11.5566 26.58C11.4876 26.592 11.5086 26.592 11.6271 26.574C11.5956 26.568 11.5491 26.5755 11.5176 26.5755C11.4426 26.5785 11.4981 26.532 11.5836 26.5875C11.5641 26.5725 11.5176 26.568 11.4951 26.5635C11.4141 26.544 11.6451 26.6505 11.5371 26.5785C11.5206 26.568 11.4876 26.544 11.4711 26.541C11.5716 26.574 11.5671 26.622 11.5011 26.5605C11.4968 26.5556 11.4918 26.5516 11.4861 26.5485L11.4756 26.5365C11.1006 26.1705 10.7376 25.7985 10.3656 25.4265L9.71458 24.7755L9.52258 24.582C9.50863 24.5684 9.49463 24.5549 9.48058 24.5415L9.47608 24.5355C9.48058 24.5415 9.41608 24.4755 9.42058 24.4755C9.48058 24.558 9.49708 24.576 9.47008 24.5325L9.44008 24.4845C9.38308 24.3885 9.46708 24.5265 9.46108 24.54C9.45551 24.5029 9.44544 24.4666 9.43108 24.432C9.44008 24.4425 9.44158 24.612 9.44158 24.4995V24.4245C9.43708 24.2895 9.39658 24.5805 9.44008 24.4545C9.44992 24.4314 9.45697 24.4072 9.46108 24.3825C9.44608 24.507 9.40708 24.492 9.44908 24.423C9.51808 24.2955 9.38608 24.477 9.43258 24.4335C9.51658 24.3495 9.59908 24.2625 9.68458 24.1785C10.0071 23.8575 10.3206 23.5485 10.4436 23.091C10.5389 22.7456 10.5269 22.3794 10.4091 22.041C10.3416 21.8595 10.2486 21.6855 10.1691 21.51C10.1474 21.4594 10.1244 21.4094 10.1001 21.36C10.1451 21.459 10.0791 21.306 10.0776 21.3L10.0206 21.1575C9.90658 20.8635 9.82858 20.5425 9.63658 20.2845C9.41109 19.9737 9.09602 19.7392 8.73358 19.6125C8.38708 19.4925 7.99258 19.527 7.63108 19.527H7.42108C7.34608 19.527 7.40158 19.488 7.49158 19.5375C7.45842 19.5224 7.42289 19.5133 7.38658 19.5105C7.39762 19.5139 7.40862 19.5174 7.41958 19.521C7.40458 19.512 7.37608 19.488 7.35958 19.4835C7.46008 19.5105 7.46308 19.575 7.41358 19.524C7.39558 19.5045 7.36558 19.4625 7.34008 19.449C7.35358 19.4565 7.43008 19.5885 7.38508 19.5L7.34908 19.44C7.28458 19.3275 7.38658 19.596 7.36408 19.47C7.36212 19.4579 7.35962 19.4459 7.35658 19.434C7.34308 19.3635 7.34308 19.389 7.36258 19.5045C7.37158 19.461 7.35958 19.3845 7.35958 19.3365V18.0855C7.35958 17.5875 7.35208 17.088 7.35958 16.59V16.581C7.35958 16.56 7.36858 16.431 7.35808 16.56C7.34758 16.6845 7.36258 16.5675 7.36858 16.5435C7.38358 16.446 7.34908 16.5885 7.33858 16.6035C7.35358 16.5855 7.36858 16.551 7.37908 16.527C7.41208 16.4565 7.45408 16.485 7.34458 16.5645C7.36708 16.5495 7.39858 16.509 7.41958 16.4895C7.50358 16.3995 7.30558 16.5495 7.37758 16.5195C7.40158 16.509 7.43158 16.4895 7.45258 16.4745C7.51858 16.4385 7.47658 16.509 7.39258 16.503C7.41358 16.5045 7.45558 16.488 7.47808 16.479C7.56208 16.455 7.29358 16.488 7.42558 16.488H7.51258C7.81708 16.488 8.12758 16.5075 8.43208 16.4655C8.79208 16.4175 9.10858 16.263 9.38458 16.0275C9.65008 15.7995 9.80158 15.495 9.91258 15.1695C9.96446 15.0166 10.0215 14.8655 10.0836 14.7165C10.0941 14.6895 10.1046 14.643 10.1211 14.622L10.0911 14.6895L10.1211 14.619C10.1586 14.5335 10.1961 14.451 10.2381 14.367C10.3986 14.031 10.5351 13.6965 10.5081 13.317C10.4827 12.9174 10.3303 12.5364 10.0731 12.2295C9.99508 12.135 9.90208 12.051 9.81508 11.961C9.71008 11.856 9.60058 11.751 9.49558 11.6415L9.47458 11.6205C9.47908 11.625 9.41458 11.559 9.42058 11.5605C9.51208 11.6055 9.48658 11.6655 9.45808 11.6025C9.44908 11.583 9.38458 11.472 9.44308 11.58C9.49558 11.6835 9.45058 11.5785 9.44008 11.553C9.40558 11.4555 9.45058 11.6055 9.44458 11.6235C9.45358 11.5965 9.44308 11.5425 9.44308 11.5125C9.43708 11.3805 9.39808 11.67 9.44008 11.5455C9.45067 11.5215 9.45823 11.4963 9.46258 11.4705C9.44758 11.5965 9.40558 11.583 9.44008 11.5275C9.44608 11.517 9.45508 11.5065 9.45958 11.496C9.49858 11.436 9.48358 11.451 9.42208 11.5365C9.44608 11.526 9.46708 11.4855 9.48958 11.463C9.53458 11.415 9.58408 11.3685 9.63058 11.322L10.2336 10.7175L11.4411 9.51L11.4816 9.4695L11.4876 9.4635C11.5026 9.4485 11.5821 9.354 11.5086 9.441C11.4606 9.4755 11.4606 9.4815 11.5026 9.4485C11.5244 9.4357 11.5469 9.42418 11.5701 9.414C11.5596 9.4275 11.4141 9.4665 11.5146 9.441C11.5251 9.4395 11.5746 9.4305 11.5881 9.4215C11.5536 9.4275 11.5176 9.4305 11.4816 9.435C11.5056 9.432 11.5296 9.432 11.5551 9.432C11.5791 9.432 11.6076 9.438 11.6286 9.435C11.4606 9.441 11.5086 9.411 11.5581 9.429C11.57 9.4315 11.5816 9.43554 11.5926 9.441C11.6601 9.462 11.6421 9.453 11.5371 9.414C11.5577 9.42795 11.5798 9.43953 11.6031 9.4485C11.7171 9.504 11.5011 9.342 11.5926 9.435C11.7726 9.6105 11.9481 9.792 12.1281 9.9675C12.6126 10.4385 13.3491 10.6365 13.9896 10.3905C14.1651 10.323 14.3301 10.236 14.4996 10.1565L14.6376 10.0965C14.6901 10.074 14.7021 10.0365 14.6166 10.104C14.6811 10.0515 14.7996 10.029 14.8761 10.002C15.0186 9.9465 15.1656 9.9015 15.3066 9.8445C15.5166 9.7605 15.6846 9.663 15.8616 9.519C16.2906 9.168 16.4796 8.6265 16.4796 8.082V7.452L16.4811 7.386C16.4811 7.299 16.4361 7.5615 16.4766 7.44C16.4791 7.42837 16.4821 7.41686 16.4856 7.4055C16.5066 7.338 16.4976 7.3605 16.4556 7.467C16.4736 7.443 16.5711 7.2885 16.4931 7.386C16.4106 7.4835 16.5441 7.353 16.5591 7.326C16.4841 7.437 16.4511 7.3935 16.5216 7.3605C16.5456 7.35 16.5786 7.338 16.5996 7.32C16.4751 7.41 16.4796 7.3635 16.5381 7.35C16.5609 7.34232 16.5846 7.33729 16.6086 7.335L16.5006 7.3455C16.5411 7.356 16.6326 7.344 16.6746 7.344H19.4556C19.5636 7.344 19.3956 7.341 19.3851 7.332C19.4127 7.34396 19.4421 7.35155 19.4721 7.3545C19.5501 7.356 19.3206 7.2705 19.4271 7.332L19.4871 7.3665C19.5966 7.425 19.4016 7.275 19.4496 7.3365C19.4691 7.3605 19.5096 7.41 19.5366 7.4235C19.5231 7.4145 19.4466 7.2825 19.4931 7.371L19.5276 7.4325C19.5936 7.5435 19.4901 7.275 19.5126 7.4025C19.5157 7.42637 19.5207 7.44994 19.5276 7.473C19.4781 7.3395 19.5156 7.3395 19.5156 7.4025V7.962C19.5156 8.145 19.5216 8.319 19.5501 8.499C19.6041 8.829 19.7691 9.1275 19.9881 9.3765C20.2236 9.642 20.5296 9.786 20.8596 9.8985C21.0021 9.951 21.1461 10.002 21.2871 10.0605C21.3171 10.074 21.4791 10.1265 21.3111 10.071C21.3411 10.083 21.3711 10.098 21.4026 10.113C21.4866 10.1505 21.5706 10.188 21.6546 10.23C21.9876 10.3905 22.3236 10.5195 22.6986 10.4895C23.1081 10.4565 23.4666 10.308 23.7816 10.044C23.9841 9.87 24.1656 9.6645 24.3546 9.4785L24.3696 9.462C24.3876 9.447 24.4656 9.351 24.3921 9.438C24.3276 9.513 24.3906 9.4485 24.4221 9.429C24.4896 9.3855 24.4461 9.4635 24.3666 9.4515C24.3861 9.453 24.4371 9.432 24.4551 9.4275C24.5391 9.4005 24.2736 9.429 24.4026 9.4365C24.4356 9.4365 24.4806 9.444 24.5136 9.438C24.3831 9.462 24.3801 9.411 24.4431 9.432C24.4671 9.441 24.5706 9.4875 24.4701 9.435C24.3621 9.378 24.4731 9.444 24.4911 9.45C24.5841 9.492 24.4596 9.435 24.4506 9.414C24.4596 9.435 24.5031 9.459 24.5256 9.48L24.9381 9.894L26.5491 11.5065C26.6106 11.571 26.5116 11.508 26.5146 11.463C26.5146 11.4735 26.5581 11.553 26.5701 11.5635C26.4996 11.496 26.5221 11.433 26.5461 11.5245C26.5656 11.592 26.5386 11.6325 26.5461 11.4735C26.5461 11.505 26.5416 11.7 26.5521 11.568C26.5626 11.4435 26.5461 11.5635 26.5416 11.5875C26.5221 11.688 26.5521 11.544 26.5686 11.532C26.5521 11.544 26.5341 11.592 26.5236 11.616C26.4951 11.6595 26.5116 11.64 26.5716 11.559C26.5553 11.5805 26.5373 11.6006 26.5176 11.619C26.4426 11.697 26.3661 11.7705 26.2881 11.8485C25.9641 12.174 25.6476 12.4905 25.5366 12.9585C25.4466 13.3335 25.4751 13.719 25.6221 14.0715C25.6896 14.232 25.7721 14.388 25.8411 14.5485L25.8816 14.64C25.8441 14.5425 25.9491 14.7915 25.8816 14.64L25.9851 14.901C26.0466 15.063 26.0991 15.228 26.1666 15.387C26.2663 15.6301 26.4191 15.8478 26.6137 16.0243C26.8083 16.2007 27.0399 16.3315 27.2916 16.407C27.6366 16.5165 28.0266 16.485 28.3821 16.485H28.5186C28.5456 16.485 28.5756 16.4895 28.6056 16.4865C28.4376 16.4925 28.4811 16.4625 28.5351 16.482C28.5591 16.4865 28.5801 16.494 28.6056 16.5015C28.5066 16.4565 28.4781 16.4445 28.5276 16.4655C28.5501 16.482 28.5801 16.4955 28.6056 16.5105C28.6626 16.5405 28.6281 16.569 28.5531 16.4655C28.5681 16.488 28.5981 16.5105 28.6191 16.5255C28.6836 16.5825 28.6206 16.596 28.5921 16.482C28.6011 16.509 28.7016 16.6725 28.6401 16.557C28.5861 16.455 28.6296 16.5525 28.6401 16.5795C28.6776 16.6935 28.6386 16.4145 28.6386 16.545V19.428L28.6356 19.4865C28.6356 19.5735 28.6806 19.311 28.6416 19.4325C28.6318 19.455 28.6253 19.4787 28.6221 19.503C28.6131 19.4055 28.6926 19.3725 28.6416 19.4535C28.6311 19.473 28.5981 19.5075 28.5966 19.5285C28.5981 19.5165 28.7091 19.4055 28.6371 19.476C28.6161 19.497 28.5771 19.521 28.5621 19.5495C28.6371 19.4385 28.6701 19.482 28.5996 19.515C28.5756 19.5255 28.5426 19.539 28.5216 19.5555C28.6461 19.4655 28.6416 19.512 28.5831 19.5255C28.5591 19.53 28.4421 19.5465 28.5681 19.536C28.6911 19.5255 28.5126 19.5345 28.4751 19.5345C28.2096 19.5345 27.9351 19.515 27.6681 19.545C26.9451 19.635 26.3781 20.094 26.1336 20.7855C26.0136 21.12 26.2686 21.5415 26.6076 21.6195C26.9856 21.7065 27.3126 21.5055 27.4401 21.1455C27.4851 21.012 27.3621 21.2865 27.4296 21.1665C27.4431 21.1455 27.4536 21.123 27.4641 21.102C27.4791 21.075 27.4986 21.0495 27.5166 21.024C27.5616 20.949 27.3966 21.1485 27.4926 21.0585L27.5436 21.0045C27.5646 20.985 27.6546 20.9235 27.5586 20.985C27.5647 20.9816 27.5707 20.9781 27.5766 20.9745C27.6075 20.9546 27.6395 20.9366 27.6726 20.9205C27.7851 20.8545 27.5436 20.964 27.6276 20.9355C27.6591 20.928 27.6846 20.9145 27.7161 20.9055C27.7386 20.901 27.7641 20.895 27.7881 20.886C27.9186 20.8545 27.6486 20.895 27.7401 20.892C27.7971 20.889 27.8511 20.886 27.9081 20.886C28.2411 20.886 28.5981 20.919 28.9251 20.841C29.5746 20.6835 30.0051 20.0715 30.0141 19.422C30.0171 19.236 30.0141 19.0485 30.0141 18.861V16.917C30.0141 16.6845 30.0231 16.4535 29.9691 16.224C29.8086 15.5625 29.1816 15.1365 28.5216 15.1335H27.7956L27.7401 15.132C27.6861 15.126 27.7161 15.132 27.8256 15.1455C27.7776 15.123 27.6981 15.1125 27.6471 15.1005C27.5451 15.0705 27.6996 15.1155 27.7071 15.126C27.6876 15.105 27.6336 15.0885 27.6096 15.075L27.5496 15.033C27.4401 14.9625 27.6456 15.123 27.5826 15.06L27.5196 15C27.4791 14.955 27.4386 14.865 27.5301 15.0225C27.5001 14.9685 27.4656 14.9175 27.4326 14.862C27.3891 14.787 27.4746 14.868 27.4551 14.919C27.4626 14.8965 27.4251 14.832 27.4161 14.811C27.2594 14.3839 27.0837 13.9639 26.8896 13.5525C26.8341 13.4445 26.9136 13.593 26.9091 13.5975C26.9181 13.584 26.8746 13.4805 26.8686 13.4595C26.8521 13.389 26.8806 13.35 26.8701 13.5015C26.8731 13.4775 26.8686 13.4475 26.8641 13.4205L26.8671 13.32C26.8671 13.2285 26.8296 13.4955 26.8611 13.362C26.8746 13.308 26.9211 13.221 26.9181 13.1685C26.9181 13.188 26.8431 13.311 26.8986 13.221L26.9601 13.1175C27.0336 12.9975 26.8551 13.2255 26.9571 13.1265L26.9871 13.0965L27.0171 13.0665L27.1611 12.9225C27.2661 12.8175 27.3756 12.7125 27.4806 12.603C27.9591 12.1155 28.0836 11.334 27.6831 10.7535C27.5556 10.5705 27.3921 10.4175 27.2346 10.2615L25.8546 8.8815C25.7346 8.7585 25.6146 8.637 25.4931 8.517C25.2281 8.25864 24.8756 8.10948 24.5057 8.0992C24.1357 8.08892 23.7755 8.21826 23.4966 8.4615C23.2956 8.6325 23.1201 8.835 22.9341 9.0195L22.8921 9.06C22.7931 9.1635 23.0226 8.985 22.9011 9.0585C22.8771 9.0705 22.8561 9.0885 22.8336 9.102C22.8066 9.117 22.7016 9.147 22.8066 9.1215L22.7751 9.129C22.7505 9.13794 22.7255 9.14546 22.7001 9.1515L22.6206 9.1665C22.6539 9.16087 22.6874 9.15687 22.7211 9.1545C22.6881 9.141 22.5636 9.153 22.5201 9.1545C22.6716 9.144 22.6311 9.174 22.5621 9.156C22.5291 9.1485 22.4961 9.1365 22.4646 9.129C22.3446 9.102 22.5156 9.141 22.5096 9.153L22.4046 9.102C22.3191 9.06 22.2351 9.024 22.1511 8.982C21.8986 8.86632 21.6413 8.76123 21.3801 8.667C21.3306 8.6505 21.2856 8.631 21.2376 8.6145C21.2076 8.604 21.1296 8.5605 21.1041 8.5695C21.1566 8.5485 21.2376 8.6355 21.1611 8.5905C21.1281 8.571 21.0951 8.556 21.0636 8.5365C21.0411 8.523 21.0216 8.5065 21.0006 8.4945C21.1416 8.5755 21.0876 8.5695 21.0531 8.529C21.0291 8.502 21.0006 8.478 20.9751 8.451C20.9346 8.4135 20.9451 8.373 21.0096 8.5035C20.9798 8.43591 20.9414 8.3724 20.8956 8.3145C20.9046 8.3235 20.9526 8.4765 20.9241 8.3745L20.8956 8.2845C20.8881 8.2575 20.8881 8.2185 20.8776 8.193C20.8821 8.2035 20.8881 8.3685 20.8881 8.2605L20.8851 8.103V7.629C20.8851 7.4355 20.8851 7.2435 20.8311 7.0575C20.7256 6.69469 20.4859 6.38572 20.1606 6.1935C19.8666 6.0285 19.5546 6 19.2306 6H16.6476C16.3865 5.99374 16.1284 6.05646 15.8992 6.18181C15.6701 6.30717 15.4781 6.49074 15.3426 6.714C15.1146 7.1025 15.1431 7.5285 15.1431 7.959V8.1795L15.1416 8.2395C15.1326 8.403 15.1791 8.103 15.1431 8.2275L15.0981 8.388C15.0711 8.472 15.1791 8.2305 15.1131 8.3445C15.1024 8.36644 15.0909 8.38795 15.0786 8.409C15.0591 8.439 15.0306 8.469 15.0186 8.502C15.0231 8.49 15.1281 8.373 15.0516 8.4495L15.0006 8.502C14.9811 8.517 14.9661 8.5335 14.9466 8.55C14.9688 8.53498 14.9903 8.51896 15.0111 8.502L14.8686 8.5875C14.7486 8.655 15.0216 8.5395 14.8896 8.577C14.8581 8.586 14.8251 8.5995 14.7921 8.61C14.4357 8.73898 14.0853 8.88413 13.7421 9.045C13.6761 9.0765 13.6071 9.105 13.5426 9.141C13.4616 9.186 13.7046 9.09 13.5696 9.129L13.4496 9.159C13.3146 9.192 13.5846 9.153 13.4916 9.153L13.3926 9.156C13.3686 9.156 13.3386 9.15 13.3146 9.15C13.4646 9.1395 13.4286 9.1695 13.3581 9.153C13.3056 9.141 13.2381 9.1005 13.1871 9.1005L13.2756 9.135C13.2512 9.12423 13.2276 9.1117 13.2051 9.0975C13.1781 9.081 13.1316 9.036 13.1031 9.03C13.1721 9.039 13.2021 9.117 13.1436 9.057L13.1106 9.024L13.0836 8.997L12.9216 8.835C12.6141 8.526 12.3186 8.199 11.8641 8.121C11.6138 8.07597 11.3563 8.09409 11.1148 8.17371C10.8733 8.25334 10.6555 8.39195 10.4811 8.577L9.22108 9.8385L8.64808 10.41L8.53558 10.524C8.28058 10.7895 8.13958 11.115 8.11108 11.4795C8.10079 11.6757 8.13045 11.8719 8.19826 12.0562C8.26607 12.2406 8.37063 12.4093 8.50558 12.552C8.58058 12.636 8.66608 12.7125 8.74408 12.789L9.03808 13.0845C9.05158 13.098 9.09208 13.155 9.10258 13.152C9.06808 13.1565 9.02158 13.0305 9.07258 13.11C9.09508 13.1445 9.11458 13.1805 9.13408 13.2135C9.17308 13.2735 9.12208 13.2675 9.11458 13.161C9.11458 13.188 9.13858 13.2285 9.14758 13.257L9.17158 13.3545C9.20458 13.479 9.16558 13.194 9.16558 13.332C9.16558 13.359 9.16858 13.386 9.16558 13.413V13.455C9.15958 13.5285 9.16258 13.509 9.17608 13.395C9.15208 13.4355 9.14308 13.5255 9.13108 13.5705C9.10858 13.6605 9.20908 13.416 9.14308 13.5435C9.12808 13.5735 9.11308 13.6035 9.10108 13.6335C9.05608 13.7235 9.01408 13.8135 8.97208 13.905C8.85987 14.1598 8.75532 14.4179 8.65858 14.679C8.64808 14.712 8.63758 14.745 8.62408 14.775C8.61508 14.799 8.54308 14.979 8.59708 14.862C8.64958 14.7525 8.56408 14.9175 8.54608 14.9475C8.53408 14.964 8.46358 15.069 8.53408 14.97C8.60158 14.8725 8.53258 14.967 8.51458 14.985C8.49958 15.0015 8.48008 15.018 8.46358 15.0375C8.37058 15.135 8.59858 14.9535 8.48458 15.0255C8.43658 15.0555 8.36458 15.0795 8.32408 15.1155C8.35708 15.1035 8.38558 15.09 8.42008 15.0795C8.39692 15.0885 8.3734 15.0965 8.34958 15.1035C8.32558 15.111 8.30008 15.1155 8.27908 15.123C8.25958 15.1275 8.22508 15.1275 8.20558 15.138L8.31058 15.126L8.23558 15.1305C8.19208 15.1335 8.14858 15.1305 8.10808 15.1305C7.76758 15.1305 7.38508 15.093 7.05658 15.1905C6.75642 15.2842 6.49408 15.4715 6.30788 15.7249C6.12168 15.9783 6.02136 16.2845 6.02158 16.599C6.01258 17.1285 6.02158 17.661 6.02158 18.195V19.1265C6.02158 19.362 6.00958 19.6005 6.07558 19.8285C6.26458 20.481 6.86308 20.8845 7.52758 20.8845H8.19958L8.27458 20.886C8.40808 20.892 8.12458 20.8515 8.24458 20.8845C8.30458 20.8995 8.36458 20.919 8.42308 20.9385C8.25808 20.8935 8.32558 20.895 8.37808 20.925C8.40508 20.9385 8.43208 20.955 8.45608 20.97C8.47558 20.982 8.49658 21.003 8.51608 21.012C8.38558 20.9505 8.42608 20.9415 8.47708 20.988L8.54158 21.0525C8.63458 21.1425 8.46058 20.9235 8.52958 21.0315C8.55958 21.081 8.58508 21.1515 8.62108 21.1935C8.54608 21.105 8.57608 21.0735 8.59408 21.1395C8.60758 21.189 8.62708 21.237 8.64208 21.2835C8.69908 21.4425 8.76208 21.5985 8.82658 21.7575C8.90158 21.936 8.97658 22.1145 9.05908 22.287C9.09208 22.3575 9.12058 22.44 9.16408 22.506C9.08458 22.3785 9.13108 22.4175 9.14608 22.479C9.15658 22.5135 9.15658 22.587 9.17758 22.617C9.16708 22.6035 9.17008 22.446 9.16708 22.557C9.16708 22.59 9.17008 22.6245 9.16708 22.6575C9.16558 22.746 9.12358 22.7175 9.17758 22.6155C9.17008 22.635 9.16708 22.677 9.16258 22.6935C9.15358 22.7265 9.14608 22.758 9.13558 22.7895C9.11158 22.8645 9.06958 22.857 9.15058 22.7565C9.13858 22.776 9.12808 22.806 9.11308 22.827C9.10024 22.8505 9.0857 22.8731 9.06958 22.8945C9.03808 22.9395 9.03808 22.938 9.07258 22.8915C9.10708 22.806 9.07258 22.887 9.04258 22.9155L9.03958 22.9185L9.00508 22.953L8.85508 23.103L8.54458 23.4135C8.28399 23.6759 8.13149 24.0266 8.11732 24.3961C8.10315 24.7656 8.22835 25.1269 8.46808 25.4085C8.57008 25.536 8.69608 25.6455 8.81158 25.7625L9.49108 26.4435C9.84208 26.7945 10.1856 27.1515 10.5426 27.495C11.1141 28.0425 11.9826 28.05 12.5691 27.525C12.7581 27.354 12.9261 27.1635 13.1076 26.988L13.1091 26.985C13.1391 26.955 13.2201 26.925 13.1331 26.955C13.0356 26.9925 13.1421 26.9535 13.1631 26.9355L13.2336 26.895C13.3506 26.8185 13.0836 26.9385 13.2201 26.8965L13.2966 26.8725C13.3236 26.8635 13.3491 26.862 13.3746 26.853C13.5021 26.8185 13.2066 26.862 13.3716 26.856H13.4721C13.5816 26.853 13.4271 26.856 13.4121 26.844C13.4421 26.8665 13.5666 26.889 13.6086 26.8965C13.5036 26.886 13.5006 26.844 13.5636 26.877C13.6071 26.901 13.6536 26.9205 13.6986 26.9415L13.9281 27.048C14.1898 27.1642 14.4554 27.2713 14.7246 27.369C14.7653 27.382 14.8053 27.3971 14.8446 27.414C14.8656 27.4215 14.8866 27.426 14.9091 27.435C14.8847 27.4226 14.8597 27.4116 14.8341 27.402C14.8791 27.4365 14.9481 27.4635 14.9976 27.4935C15.0891 27.549 14.9541 27.4665 14.9481 27.456C14.9601 27.4785 14.9976 27.501 15.0156 27.5175C15.0351 27.537 15.0576 27.573 15.0771 27.585C14.9991 27.54 14.9991 27.474 15.0396 27.537C15.0591 27.5685 15.0816 27.597 15.0966 27.6285C15.1266 27.681 15.1416 27.78 15.0906 27.5985C15.1056 27.6525 15.1251 27.7035 15.1386 27.759C15.1536 27.819 15.1371 27.879 15.1371 27.7065C15.1371 27.7305 15.1431 27.759 15.1431 27.7815V28.398C15.1431 28.593 15.1476 28.7925 15.2076 28.98C15.3208 29.3409 15.5698 29.6437 15.9021 29.8245C16.1991 29.976 16.4991 30 16.8216 30H17.6916C18.2571 30 18.8241 30.003 19.3896 30C19.9251 29.9985 20.4636 29.7315 20.7111 29.241C20.9121 28.848 20.8866 28.4415 20.8866 28.017V27.8025C20.8866 27.7755 20.8971 27.735 20.8926 27.7065C20.8866 27.741 20.8836 27.777 20.8791 27.8115C20.8851 27.789 20.8881 27.7635 20.8956 27.7395L20.9151 27.669C20.9166 27.657 20.9241 27.645 20.9256 27.6345C20.9496 27.5685 20.9421 27.5895 20.8986 27.6945C20.9331 27.6555 20.9526 27.594 20.9796 27.5505C21.0321 27.4725 21.0336 27.54 20.9496 27.585C20.968 27.5689 20.9847 27.5508 20.9991 27.531L21.0651 27.4695C21.1041 27.4365 21.0816 27.4545 21.0006 27.5175C21.0201 27.5055 21.0411 27.4875 21.0621 27.477C21.0921 27.4575 21.2571 27.3735 21.1491 27.4245C21.0321 27.4785 21.1731 27.42 21.1866 27.414L21.2841 27.381C21.6406 27.2522 21.991 27.1071 22.3341 26.946L22.4256 26.901C22.4406 26.8935 22.4556 26.889 22.4706 26.88C22.4554 26.8861 22.4404 26.8926 22.4256 26.8995C22.493 26.8911 22.5591 26.8739 22.6221 26.8485L22.5231 26.8605L22.6041 26.856H22.6851C22.7961 26.856 22.6371 26.853 22.6251 26.844C22.6506 26.8605 22.7106 26.8605 22.7406 26.868L22.8156 26.892C22.9461 26.934 22.7061 26.832 22.7841 26.8785C22.8141 26.898 22.8441 26.9115 22.8726 26.928L22.9251 26.9625L22.8681 26.919C22.9296 27.0165 23.0571 27.105 23.1381 27.189L23.4306 27.48C23.6901 27.735 23.9991 27.8685 24.3561 27.9075C24.8241 27.96 25.2456 27.7395 25.5651 27.417L26.0976 26.8845L27.4026 25.5795L27.5016 25.4805C27.7641 25.2075 27.9066 24.8685 27.9261 24.4905C27.9308 24.2935 27.8956 24.0976 27.8227 23.9146C27.7497 23.7316 27.6405 23.5652 27.5016 23.4255C27.4236 23.3445 27.3411 23.265 27.2631 23.187C27.1746 23.0985 27.0816 23.0085 26.9931 22.917C26.9871 22.911 26.9391 22.8495 26.9316 22.8495C26.9511 22.8735 26.9661 22.899 26.9856 22.9245C26.9555 22.8792 26.9265 22.8332 26.8986 22.7865C26.8281 22.6665 26.9361 22.905 26.9091 22.818C26.8986 22.7865 26.8881 22.758 26.8791 22.7235C26.8701 22.6965 26.8671 22.671 26.8596 22.6455C26.8281 22.5105 26.8656 22.7805 26.8656 22.686C26.8656 22.641 26.8806 22.5495 26.8671 22.5075L26.8551 22.6065C26.8598 22.5809 26.8648 22.5554 26.8701 22.53C26.8761 22.503 26.8866 22.4775 26.8926 22.4505C26.9301 22.3155 26.8356 22.56 26.8791 22.479C26.8986 22.443 26.9136 22.404 26.9331 22.3695C26.9661 22.3035 26.9976 22.2345 27.0306 22.164C27.1851 21.8265 27.3231 21.4815 27.4416 21.129C27.5556 20.7945 27.3126 20.3745 26.9676 20.2965C26.7929 20.2608 26.6112 20.2909 26.4575 20.3812C26.3038 20.4715 26.1889 20.6155 26.1351 20.7855H26.1336Z" fill="#003462"/>
<path d="M21.9306 18.0165C21.9306 18.1305 21.9261 18.2445 21.9186 18.3585L21.9036 18.5445L21.8931 18.6195C21.9126 18.4035 21.9051 18.534 21.8961 18.585C21.8585 18.8136 21.8044 19.0392 21.7341 19.26C21.7011 19.362 21.6591 19.4625 21.6231 19.5645C21.5781 19.686 21.6831 19.437 21.6426 19.5195L21.6051 19.6005C21.5811 19.6545 21.5526 19.7085 21.5271 19.761C21.3968 20.0141 21.2442 20.2551 21.0711 20.481C20.9961 20.5695 20.9166 20.6595 20.8356 20.7435C20.7621 20.8185 20.6856 20.8935 20.6061 20.961L20.4861 21.0675C20.4441 21.102 20.2581 21.228 20.4441 21.105C20.2551 21.2295 20.0781 21.363 19.8786 21.471C19.7856 21.5228 19.6905 21.5708 19.5936 21.615L19.5276 21.645C19.4301 21.69 19.5831 21.621 19.5891 21.618C19.5216 21.639 19.4556 21.672 19.3896 21.696C19.1781 21.771 18.9621 21.831 18.7416 21.8775C18.6876 21.888 18.6336 21.9 18.5796 21.9075C18.5586 21.9105 18.4341 21.927 18.5601 21.9135C18.6876 21.8985 18.5616 21.9135 18.5391 21.915C18.1838 21.9578 17.8246 21.9568 17.4696 21.912C17.4156 21.9075 17.3316 21.8775 17.5221 21.921C17.4974 21.9158 17.4723 21.9122 17.4471 21.9105L17.2851 21.8805C17.1658 21.8568 17.0477 21.8278 16.9311 21.7935C16.8267 21.7643 16.7237 21.7308 16.6221 21.693L16.4721 21.6375C16.3716 21.6 16.5276 21.6615 16.5321 21.6645C16.2923 21.5601 16.0616 21.4362 15.8421 21.294C15.7521 21.2385 15.6696 21.1695 15.5826 21.1095C15.7686 21.231 15.5931 21.1185 15.5526 21.0825C15.3345 20.9019 15.1341 20.701 14.9541 20.4825C14.9166 20.4375 14.8041 20.265 14.9271 20.4525C14.9001 20.4105 14.8701 20.376 14.8416 20.3385C14.71 20.1553 14.5936 19.9617 14.4936 19.7595C14.4666 19.704 14.4396 19.653 14.4156 19.5975L14.3856 19.533C14.3301 19.4085 14.4471 19.6905 14.3991 19.563C14.2619 19.2248 14.1662 18.8712 14.1141 18.51C14.1591 18.699 14.1291 18.615 14.1231 18.5625L14.1036 18.3555C14.0886 18.1185 14.0886 17.877 14.1066 17.6385C14.1081 17.5905 14.1156 17.5395 14.1201 17.4885C14.1216 17.4675 14.1351 17.34 14.1216 17.4675C14.1081 17.5965 14.1216 17.4705 14.1276 17.448C14.1471 17.328 14.1696 17.208 14.2011 17.088C14.2551 16.8705 14.3301 16.665 14.4081 16.452C14.4411 16.368 14.3346 16.617 14.3886 16.497L14.4186 16.4325C14.4426 16.3785 14.4711 16.3245 14.4966 16.272C14.5964 16.0766 14.7102 15.8886 14.8371 15.7095C14.8671 15.666 14.9016 15.6255 14.9316 15.579C14.8071 15.7665 14.9316 15.579 14.9706 15.5355C15.1101 15.369 15.2616 15.2115 15.4251 15.0645C15.4671 15.024 15.5136 14.9865 15.5571 14.9475C15.5811 14.928 15.7251 14.8125 15.6276 14.892C15.5286 14.97 15.6771 14.8575 15.7026 14.8395C15.9349 14.6741 16.1825 14.5315 16.4421 14.4135L16.5216 14.376C16.6026 14.337 16.3536 14.442 16.4766 14.3955L16.6116 14.343C16.8857 14.2435 17.1684 14.1697 17.4561 14.1225L17.5311 14.1105C17.3151 14.1495 17.4486 14.1225 17.4981 14.1165C17.7351 14.0902 17.9738 14.0812 18.2121 14.0895C18.3486 14.0949 18.4848 14.1069 18.6201 14.1255C18.4176 14.106 18.5181 14.112 18.5691 14.1195L18.7686 14.154C18.9936 14.199 19.2141 14.2635 19.4316 14.3445L19.5816 14.4045C19.6671 14.436 19.4181 14.3295 19.5366 14.3835C19.5591 14.3955 19.5816 14.403 19.6026 14.4135C19.7106 14.463 19.8171 14.5185 19.9176 14.577C20.0106 14.6295 20.1021 14.685 20.1906 14.742L20.3241 14.8305C20.3676 14.8605 20.5461 15.009 20.3721 14.862C20.5431 15.009 20.7141 15.15 20.8701 15.312C20.9451 15.387 21.0126 15.4695 21.0801 15.5505C21.1116 15.585 21.1401 15.624 21.1701 15.6615C21.0201 15.4875 21.1701 15.663 21.2031 15.7095C21.3321 15.894 21.4491 16.089 21.5481 16.2885C21.5721 16.338 21.5976 16.386 21.6186 16.4355C21.6306 16.4565 21.6381 16.479 21.6486 16.5C21.7041 16.62 21.5976 16.3695 21.6291 16.455C21.6711 16.5675 21.7161 16.68 21.7536 16.7925C21.8251 17.0141 21.8797 17.2407 21.9171 17.4705C21.9006 17.343 21.9171 17.4675 21.9186 17.4915L21.9336 17.6595C21.9291 17.7765 21.9321 17.898 21.9321 18.0165C21.9336 18.372 22.2426 18.7095 22.6071 18.6945C22.9731 18.678 23.2881 18.396 23.2836 18.0165C23.2831 16.9318 22.949 15.8734 22.3266 14.985C21.6923 14.097 20.8053 13.4206 19.7811 13.044C17.7576 12.297 15.3411 12.9555 13.9731 14.625C13.2662 15.4809 12.8394 16.5335 12.7506 17.64C12.6709 18.7062 12.9182 19.7713 13.4596 20.6933C14.001 21.6152 14.8107 22.3502 15.7806 22.8C16.8188 23.2753 17.981 23.4092 19.1001 23.1825C21.1701 22.7685 22.8846 21 23.2101 18.9075C23.2551 18.612 23.2881 18.3165 23.2881 18.0165C23.2896 17.661 22.9761 17.3235 22.6116 17.3415C22.433 17.3442 22.2624 17.416 22.1357 17.5419C22.0089 17.6678 21.936 17.8379 21.9321 18.0165H21.9306Z" fill="#003462"/>
</g>
<defs>
<clipPath id="clip0_11_2022">
<rect width="24" height="24" fill="white" transform="translate(6.01562 6)"/>
</clipPath>
</defs>
</svg>
