<svg width="37" height="36" viewBox="0 0 37 36" fill="none" xmlns="http://www.w3.org/2000/svg">
<rect x="0.015625" width="36" height="36" rx="18" fill="#5EC389"/>
<g clip-path="url(#clip0_15_2972)">
<path d="M26.1336 20.7856C26.0789 20.9459 26.0204 21.105 25.9581 21.2626L25.9206 21.3571C25.9231 21.3501 25.9256 21.3431 25.9281 21.3361C25.8966 21.4306 25.8471 21.5221 25.8051 21.6121C25.6446 21.9481 25.5021 22.2646 25.5096 22.6471C25.5156 23.0041 25.6266 23.3716 25.8441 23.6551C25.9491 23.7961 26.0646 23.9176 26.1876 24.0436L26.5146 24.3706C26.5221 24.3796 26.5341 24.3856 26.5416 24.3976C26.5521 24.4075 26.5621 24.4181 26.5716 24.4291C26.6241 24.4816 26.5656 24.4741 26.5371 24.3871C26.5431 24.4021 26.5641 24.4351 26.5746 24.4516C26.6451 24.5626 26.5401 24.3016 26.5641 24.4306C26.5673 24.4558 26.5738 24.4805 26.5836 24.5041C26.5311 24.3691 26.5731 24.3826 26.5731 24.4711C26.5731 24.4921 26.5641 24.6211 26.5746 24.4921C26.5851 24.3676 26.5701 24.4876 26.5641 24.5116C26.5506 24.5791 26.5116 24.5356 26.5911 24.4561C26.5761 24.4711 26.5566 24.5176 26.5461 24.5401C26.5071 24.6181 26.6631 24.4156 26.5701 24.5131L26.5431 24.5431C26.5392 24.5472 26.5352 24.5512 26.5311 24.5551C26.4891 24.6001 26.4426 24.6436 26.3961 24.6901L24.5811 26.5051L24.5391 26.5501L24.5301 26.5576L24.5001 26.5846C24.4071 26.6746 24.6321 26.5036 24.4941 26.5786C24.3981 26.6341 24.4641 26.5561 24.5346 26.5666C24.5241 26.5636 24.4701 26.5861 24.4611 26.5876C24.3336 26.6266 24.6021 26.5831 24.5136 26.5831H24.4221C24.3471 26.5846 24.4026 26.5381 24.4881 26.5936C24.4686 26.5801 24.4221 26.5741 24.3996 26.5696C24.3186 26.5501 24.5496 26.6566 24.4416 26.5846C24.3876 26.5516 24.3381 26.4826 24.4491 26.6071C24.2751 26.4151 24.0771 26.2366 23.8896 26.0521C23.4186 25.5871 22.6971 25.3816 22.0596 25.6096C21.8871 25.6696 21.7251 25.7596 21.5571 25.8361C21.4821 25.8706 21.4071 25.9111 21.3276 25.9396C21.3351 25.9367 21.3426 25.9337 21.3501 25.9306L21.2091 25.9876C20.9001 26.1076 20.5596 26.1871 20.2896 26.3881C20.0502 26.5625 19.8563 26.7921 19.7244 27.0574C19.5926 27.3227 19.5266 27.6159 19.5321 27.9121V28.5646C19.5321 28.5856 19.5231 28.7146 19.5336 28.5856C19.5471 28.4401 19.5126 28.6306 19.5126 28.6381C19.5096 28.6246 19.5936 28.4866 19.5396 28.5766L19.5051 28.6366C19.4481 28.7521 19.6191 28.5271 19.5261 28.6141L19.4781 28.6621C19.4106 28.7371 19.5186 28.6246 19.5321 28.6216C19.5081 28.6276 19.4616 28.6621 19.4406 28.6756C19.3746 28.7131 19.4166 28.6426 19.5006 28.6486C19.4645 28.6525 19.4291 28.6616 19.3956 28.6756C19.4826 28.6231 19.5456 28.6621 19.4481 28.6651H16.5846C16.5606 28.6651 16.5321 28.6591 16.5096 28.6621C16.6761 28.6576 16.6326 28.6861 16.5786 28.6681C16.567 28.6656 16.5554 28.6625 16.5441 28.6591C16.4766 28.6381 16.4991 28.6471 16.6056 28.6891C16.5906 28.6771 16.5606 28.6681 16.5456 28.6576C16.5306 28.6486 16.5006 28.6246 16.4856 28.6201C16.5741 28.6936 16.5936 28.7056 16.5396 28.6606C16.5246 28.6501 16.5156 28.6366 16.5006 28.6231C16.4361 28.5661 16.4991 28.5526 16.5276 28.6666C16.5231 28.6501 16.4976 28.6216 16.4901 28.6066C16.4796 28.5871 16.4196 28.4821 16.4796 28.5916C16.5336 28.6936 16.4901 28.5961 16.4796 28.5691C16.4571 28.5031 16.5096 28.5121 16.4856 28.6396C16.4826 28.6471 16.4826 28.5541 16.4826 28.5646V28.0696C16.4826 27.9421 16.4856 27.8116 16.4721 27.6856C16.4334 27.3117 16.2847 26.9577 16.0446 26.6686C15.8226 26.3971 15.5136 26.2336 15.1881 26.1196C15.0441 26.0702 14.9015 26.0167 14.7606 25.9591L14.6436 25.9096C14.5461 25.8691 14.7936 25.9771 14.6436 25.9096C14.5686 25.8751 14.4891 25.8436 14.4141 25.8046C14.0676 25.6411 13.7346 25.4881 13.3401 25.5091C12.9936 25.5286 12.6501 25.6306 12.3681 25.8391C12.1056 26.0341 11.8866 26.2831 11.6541 26.5141L11.6241 26.5441L11.5941 26.5741C11.4951 26.6686 11.6991 26.5141 11.6196 26.5501C11.5986 26.5606 11.5536 26.5801 11.5356 26.5951C11.6136 26.5171 11.6601 26.5546 11.5926 26.5681C11.5801 26.5705 11.568 26.5745 11.5566 26.5801C11.4876 26.5921 11.5086 26.5921 11.6271 26.5741C11.5956 26.5681 11.5491 26.5756 11.5176 26.5756C11.4426 26.5786 11.4981 26.5321 11.5836 26.5876C11.5641 26.5726 11.5176 26.5681 11.4951 26.5636C11.4141 26.5441 11.6451 26.6506 11.5371 26.5786C11.5206 26.5681 11.4876 26.5441 11.4711 26.5411C11.5716 26.5741 11.5671 26.6221 11.5011 26.5606C11.4968 26.5557 11.4918 26.5516 11.4861 26.5486L11.4756 26.5366C11.1006 26.1706 10.7376 25.7986 10.3656 25.4266L9.71458 24.7756L9.52258 24.5821C9.50863 24.5685 9.49463 24.555 9.48058 24.5416L9.47608 24.5356C9.48058 24.5416 9.41608 24.4756 9.42058 24.4756C9.48058 24.5581 9.49708 24.5761 9.47008 24.5326L9.44008 24.4846C9.38308 24.3886 9.46708 24.5266 9.46108 24.5401C9.45551 24.503 9.44544 24.4667 9.43108 24.4321C9.44008 24.4426 9.44158 24.6121 9.44158 24.4996V24.4246C9.43708 24.2896 9.39658 24.5806 9.44008 24.4546C9.44992 24.4315 9.45697 24.4073 9.46108 24.3826C9.44608 24.5071 9.40708 24.4921 9.44908 24.4231C9.51808 24.2956 9.38608 24.4771 9.43258 24.4336C9.51658 24.3496 9.59908 24.2626 9.68458 24.1786C10.0071 23.8576 10.3206 23.5486 10.4436 23.0911C10.5389 22.7457 10.5269 22.3795 10.4091 22.0411C10.3416 21.8596 10.2486 21.6856 10.1691 21.5101C10.1474 21.4595 10.1244 21.4095 10.1001 21.3601C10.1451 21.4591 10.0791 21.3061 10.0776 21.3001L10.0206 21.1576C9.90658 20.8636 9.82858 20.5426 9.63658 20.2846C9.41109 19.9738 9.09602 19.7393 8.73358 19.6126C8.38708 19.4926 7.99258 19.5271 7.63108 19.5271H7.42108C7.34608 19.5271 7.40158 19.4881 7.49158 19.5376C7.45842 19.5225 7.42289 19.5134 7.38658 19.5106C7.39762 19.5139 7.40862 19.5174 7.41958 19.5211C7.40458 19.5121 7.37608 19.4881 7.35958 19.4836C7.46008 19.5106 7.46308 19.5751 7.41358 19.5241C7.39558 19.5046 7.36558 19.4626 7.34008 19.4491C7.35358 19.4566 7.43008 19.5886 7.38508 19.5001L7.34908 19.4401C7.28458 19.3276 7.38658 19.5961 7.36408 19.4701C7.36212 19.458 7.35962 19.4459 7.35658 19.4341C7.34308 19.3636 7.34308 19.3891 7.36258 19.5046C7.37158 19.4611 7.35958 19.3846 7.35958 19.3366V18.0856C7.35958 17.5876 7.35208 17.0881 7.35958 16.5901V16.5811C7.35958 16.5601 7.36858 16.4311 7.35808 16.5601C7.34758 16.6846 7.36258 16.5676 7.36858 16.5436C7.38358 16.4461 7.34908 16.5886 7.33858 16.6036C7.35358 16.5856 7.36858 16.5511 7.37908 16.5271C7.41208 16.4566 7.45408 16.4851 7.34458 16.5646C7.36708 16.5496 7.39858 16.5091 7.41958 16.4896C7.50358 16.3996 7.30558 16.5496 7.37758 16.5196C7.40158 16.5091 7.43158 16.4896 7.45258 16.4746C7.51858 16.4386 7.47658 16.5091 7.39258 16.5031C7.41358 16.5046 7.45558 16.4881 7.47808 16.4791C7.56208 16.4551 7.29358 16.4881 7.42558 16.4881H7.51258C7.81708 16.4881 8.12758 16.5076 8.43208 16.4656C8.79208 16.4176 9.10858 16.2631 9.38458 16.0276C9.65008 15.7996 9.80158 15.4951 9.91258 15.1696C9.96446 15.0167 10.0215 14.8656 10.0836 14.7166C10.0941 14.6896 10.1046 14.6431 10.1211 14.6221L10.0911 14.6896L10.1211 14.6191C10.1586 14.5336 10.1961 14.4511 10.2381 14.3671C10.3986 14.0311 10.5351 13.6966 10.5081 13.3171C10.4827 12.9175 10.3303 12.5364 10.0731 12.2296C9.99508 12.1351 9.90208 12.0511 9.81508 11.9611C9.71008 11.8561 9.60058 11.7511 9.49558 11.6416L9.47458 11.6206C9.47908 11.6251 9.41458 11.5591 9.42058 11.5606C9.51208 11.6056 9.48658 11.6656 9.45808 11.6026C9.44908 11.5831 9.38458 11.4721 9.44308 11.5801C9.49558 11.6836 9.45058 11.5786 9.44008 11.5531C9.40558 11.4556 9.45058 11.6056 9.44458 11.6236C9.45358 11.5966 9.44308 11.5426 9.44308 11.5126C9.43708 11.3806 9.39808 11.6701 9.44008 11.5456C9.45067 11.5216 9.45823 11.4964 9.46258 11.4706C9.44758 11.5966 9.40558 11.5831 9.44008 11.5276C9.44608 11.5171 9.45508 11.5066 9.45958 11.4961C9.49858 11.4361 9.48358 11.4511 9.42208 11.5366C9.44608 11.5261 9.46708 11.4856 9.48958 11.4631C9.53458 11.4151 9.58408 11.3686 9.63058 11.3221L10.2336 10.7176L11.4411 9.51006L11.4816 9.46956L11.4876 9.46356C11.5026 9.44856 11.5821 9.35406 11.5086 9.44106C11.4606 9.47556 11.4606 9.48156 11.5026 9.44856C11.5244 9.43576 11.5469 9.42424 11.5701 9.41406C11.5596 9.42756 11.4141 9.46656 11.5146 9.44106C11.5251 9.43956 11.5746 9.43056 11.5881 9.42156C11.5536 9.42756 11.5176 9.43056 11.4816 9.43506C11.5056 9.43206 11.5296 9.43206 11.5551 9.43206C11.5791 9.43206 11.6076 9.43806 11.6286 9.43506C11.4606 9.44106 11.5086 9.41106 11.5581 9.42906C11.57 9.43156 11.5816 9.4356 11.5926 9.44106C11.6601 9.46206 11.6421 9.45306 11.5371 9.41406C11.5577 9.42801 11.5798 9.43959 11.6031 9.44856C11.7171 9.50406 11.5011 9.34206 11.5926 9.43506C11.7726 9.61056 11.9481 9.79206 12.1281 9.96756C12.6126 10.4386 13.3491 10.6366 13.9896 10.3906C14.1651 10.3231 14.3301 10.2361 14.4996 10.1566L14.6376 10.0966C14.6901 10.0741 14.7021 10.0366 14.6166 10.1041C14.6811 10.0516 14.7996 10.0291 14.8761 10.0021C15.0186 9.94656 15.1656 9.90156 15.3066 9.84456C15.5166 9.76056 15.6846 9.66306 15.8616 9.51906C16.2906 9.16806 16.4796 8.62656 16.4796 8.08206V7.45206L16.4811 7.38606C16.4811 7.29906 16.4361 7.56156 16.4766 7.44006C16.4791 7.42844 16.4821 7.41692 16.4856 7.40556C16.5066 7.33806 16.4976 7.36056 16.4556 7.46706C16.4736 7.44306 16.5711 7.28856 16.4931 7.38606C16.4106 7.48356 16.5441 7.35306 16.5591 7.32606C16.4841 7.43706 16.4511 7.39356 16.5216 7.36056C16.5456 7.35006 16.5786 7.33806 16.5996 7.32006C16.4751 7.41006 16.4796 7.36356 16.5381 7.35006C16.5609 7.34238 16.5846 7.33735 16.6086 7.33506L16.5006 7.34556C16.5411 7.35606 16.6326 7.34406 16.6746 7.34406H19.4556C19.5636 7.34406 19.3956 7.34106 19.3851 7.33206C19.4127 7.34402 19.4421 7.35161 19.4721 7.35456C19.5501 7.35606 19.3206 7.27056 19.4271 7.33206L19.4871 7.36656C19.5966 7.42506 19.4016 7.27506 19.4496 7.33656C19.4691 7.36056 19.5096 7.41006 19.5366 7.42356C19.5231 7.41456 19.4466 7.28256 19.4931 7.37106L19.5276 7.43256C19.5936 7.54356 19.4901 7.27506 19.5126 7.40256C19.5157 7.42643 19.5207 7.45 19.5276 7.47306C19.4781 7.33956 19.5156 7.33956 19.5156 7.40256V7.96206C19.5156 8.14506 19.5216 8.31906 19.5501 8.49906C19.6041 8.82906 19.7691 9.12756 19.9881 9.37656C20.2236 9.64206 20.5296 9.78606 20.8596 9.89856C21.0021 9.95106 21.1461 10.0021 21.2871 10.0606C21.3171 10.0741 21.4791 10.1266 21.3111 10.0711C21.3411 10.0831 21.3711 10.0981 21.4026 10.1131C21.4866 10.1506 21.5706 10.1881 21.6546 10.2301C21.9876 10.3906 22.3236 10.5196 22.6986 10.4896C23.1081 10.4566 23.4666 10.3081 23.7816 10.0441C23.9841 9.87006 24.1656 9.66456 24.3546 9.47856L24.3696 9.46206C24.3876 9.44706 24.4656 9.35106 24.3921 9.43806C24.3276 9.51306 24.3906 9.44856 24.4221 9.42906C24.4896 9.38556 24.4461 9.46356 24.3666 9.45156C24.3861 9.45306 24.4371 9.43206 24.4551 9.42756C24.5391 9.40056 24.2736 9.42906 24.4026 9.43656C24.4356 9.43656 24.4806 9.44406 24.5136 9.43806C24.3831 9.46206 24.3801 9.41106 24.4431 9.43206C24.4671 9.44106 24.5706 9.48756 24.4701 9.43506C24.3621 9.37806 24.4731 9.44406 24.4911 9.45006C24.5841 9.49206 24.4596 9.43506 24.4506 9.41406C24.4596 9.43506 24.5031 9.45906 24.5256 9.48006L24.9381 9.89406L26.5491 11.5066C26.6106 11.5711 26.5116 11.5081 26.5146 11.4631C26.5146 11.4736 26.5581 11.5531 26.5701 11.5636C26.4996 11.4961 26.5221 11.4331 26.5461 11.5246C26.5656 11.5921 26.5386 11.6326 26.5461 11.4736C26.5461 11.5051 26.5416 11.7001 26.5521 11.5681C26.5626 11.4436 26.5461 11.5636 26.5416 11.5876C26.5221 11.6881 26.5521 11.5441 26.5686 11.5321C26.5521 11.5441 26.5341 11.5921 26.5236 11.6161C26.4951 11.6596 26.5116 11.6401 26.5716 11.5591C26.5553 11.5806 26.5373 11.6007 26.5176 11.6191C26.4426 11.6971 26.3661 11.7706 26.2881 11.8486C25.9641 12.1741 25.6476 12.4906 25.5366 12.9586C25.4466 13.3336 25.4751 13.7191 25.6221 14.0716C25.6896 14.2321 25.7721 14.3881 25.8411 14.5486L25.8816 14.6401C25.8441 14.5426 25.9491 14.7916 25.8816 14.6401L25.9851 14.9011C26.0466 15.0631 26.0991 15.2281 26.1666 15.3871C26.2663 15.6301 26.4191 15.8478 26.6137 16.0243C26.8083 16.2008 27.0399 16.3316 27.2916 16.4071C27.6366 16.5166 28.0266 16.4851 28.3821 16.4851H28.5186C28.5456 16.4851 28.5756 16.4896 28.6056 16.4866C28.4376 16.4926 28.4811 16.4626 28.5351 16.4821C28.5591 16.4866 28.5801 16.4941 28.6056 16.5016C28.5066 16.4566 28.4781 16.4446 28.5276 16.4656C28.5501 16.4821 28.5801 16.4956 28.6056 16.5106C28.6626 16.5406 28.6281 16.5691 28.5531 16.4656C28.5681 16.4881 28.5981 16.5106 28.6191 16.5256C28.6836 16.5826 28.6206 16.5961 28.5921 16.4821C28.6011 16.5091 28.7016 16.6726 28.6401 16.5571C28.5861 16.4551 28.6296 16.5526 28.6401 16.5796C28.6776 16.6936 28.6386 16.4146 28.6386 16.5451V19.4281L28.6356 19.4866C28.6356 19.5736 28.6806 19.3111 28.6416 19.4326C28.6318 19.455 28.6253 19.4788 28.6221 19.5031C28.6131 19.4056 28.6926 19.3726 28.6416 19.4536C28.6311 19.4731 28.5981 19.5076 28.5966 19.5286C28.5981 19.5166 28.7091 19.4056 28.6371 19.4761C28.6161 19.4971 28.5771 19.5211 28.5621 19.5496C28.6371 19.4386 28.6701 19.4821 28.5996 19.5151C28.5756 19.5256 28.5426 19.5391 28.5216 19.5556C28.6461 19.4656 28.6416 19.5121 28.5831 19.5256C28.5591 19.5301 28.4421 19.5466 28.5681 19.5361C28.6911 19.5256 28.5126 19.5346 28.4751 19.5346C28.2096 19.5346 27.9351 19.5151 27.6681 19.5451C26.9451 19.6351 26.3781 20.0941 26.1336 20.7856C26.0136 21.1201 26.2686 21.5416 26.6076 21.6196C26.9856 21.7066 27.3126 21.5056 27.4401 21.1456C27.4851 21.0121 27.3621 21.2866 27.4296 21.1666C27.4431 21.1456 27.4536 21.1231 27.4641 21.1021C27.4791 21.0751 27.4986 21.0496 27.5166 21.0241C27.5616 20.9491 27.3966 21.1486 27.4926 21.0586L27.5436 21.0046C27.5646 20.9851 27.6546 20.9236 27.5586 20.9851C27.5647 20.9817 27.5707 20.9782 27.5766 20.9746C27.6075 20.9546 27.6395 20.9366 27.6726 20.9206C27.7851 20.8546 27.5436 20.9641 27.6276 20.9356C27.6591 20.9281 27.6846 20.9146 27.7161 20.9056C27.7386 20.9011 27.7641 20.8951 27.7881 20.8861C27.9186 20.8546 27.6486 20.8951 27.7401 20.8921C27.7971 20.8891 27.8511 20.8861 27.9081 20.8861C28.2411 20.8861 28.5981 20.9191 28.9251 20.8411C29.5746 20.6836 30.0051 20.0716 30.0141 19.4221C30.0171 19.2361 30.0141 19.0486 30.0141 18.8611V16.9171C30.0141 16.6846 30.0231 16.4536 29.9691 16.2241C29.8086 15.5626 29.1816 15.1366 28.5216 15.1336H27.7956L27.7401 15.1321C27.6861 15.1261 27.7161 15.1321 27.8256 15.1456C27.7776 15.1231 27.6981 15.1126 27.6471 15.1006C27.5451 15.0706 27.6996 15.1156 27.7071 15.1261C27.6876 15.1051 27.6336 15.0886 27.6096 15.0751L27.5496 15.0331C27.4401 14.9626 27.6456 15.1231 27.5826 15.0601L27.5196 15.0001C27.4791 14.9551 27.4386 14.8651 27.5301 15.0226C27.5001 14.9686 27.4656 14.9176 27.4326 14.8621C27.3891 14.7871 27.4746 14.8681 27.4551 14.9191C27.4626 14.8966 27.4251 14.8321 27.4161 14.8111C27.2594 14.3839 27.0837 13.964 26.8896 13.5526C26.8341 13.4446 26.9136 13.5931 26.9091 13.5976C26.9181 13.5841 26.8746 13.4806 26.8686 13.4596C26.8521 13.3891 26.8806 13.3501 26.8701 13.5016C26.8731 13.4776 26.8686 13.4476 26.8641 13.4206L26.8671 13.3201C26.8671 13.2286 26.8296 13.4956 26.8611 13.3621C26.8746 13.3081 26.9211 13.2211 26.9181 13.1686C26.9181 13.1881 26.8431 13.3111 26.8986 13.2211L26.9601 13.1176C27.0336 12.9976 26.8551 13.2256 26.9571 13.1266L26.9871 13.0966L27.0171 13.0666L27.1611 12.9226C27.2661 12.8176 27.3756 12.7126 27.4806 12.6031C27.9591 12.1156 28.0836 11.3341 27.6831 10.7536C27.5556 10.5706 27.3921 10.4176 27.2346 10.2616L25.8546 8.88156C25.7346 8.75856 25.6146 8.63706 25.4931 8.51706C25.2281 8.2587 24.8756 8.10954 24.5057 8.09926C24.1357 8.08898 23.7755 8.21832 23.4966 8.46156C23.2956 8.63256 23.1201 8.83506 22.9341 9.01956L22.8921 9.06006C22.7931 9.16356 23.0226 8.98506 22.9011 9.05856C22.8771 9.07056 22.8561 9.08856 22.8336 9.10206C22.8066 9.11706 22.7016 9.14706 22.8066 9.12156L22.7751 9.12906C22.7505 9.13801 22.7255 9.14552 22.7001 9.15156L22.6206 9.16656C22.6539 9.16094 22.6874 9.15693 22.7211 9.15456C22.6881 9.14106 22.5636 9.15306 22.5201 9.15456C22.6716 9.14406 22.6311 9.17406 22.5621 9.15606C22.5291 9.14856 22.4961 9.13656 22.4646 9.12906C22.3446 9.10206 22.5156 9.14106 22.5096 9.15306L22.4046 9.10206C22.3191 9.06006 22.2351 9.02406 22.1511 8.98206C21.8986 8.86638 21.6413 8.76129 21.3801 8.66706C21.3306 8.65056 21.2856 8.63106 21.2376 8.61456C21.2076 8.60406 21.1296 8.56056 21.1041 8.56956C21.1566 8.54856 21.2376 8.63556 21.1611 8.59056C21.1281 8.57106 21.0951 8.55606 21.0636 8.53656C21.0411 8.52306 21.0216 8.50656 21.0006 8.49456C21.1416 8.57556 21.0876 8.56956 21.0531 8.52906C21.0291 8.50206 21.0006 8.47806 20.9751 8.45106C20.9346 8.41356 20.9451 8.37306 21.0096 8.50356C20.9798 8.43598 20.9414 8.37246 20.8956 8.31456C20.9046 8.32356 20.9526 8.47656 20.9241 8.37456L20.8956 8.28456C20.8881 8.25756 20.8881 8.21856 20.8776 8.19306C20.8821 8.20356 20.8881 8.36856 20.8881 8.26056L20.8851 8.10306V7.62906C20.8851 7.43556 20.8851 7.24356 20.8311 7.05756C20.7256 6.69475 20.4859 6.38578 20.1606 6.19356C19.8666 6.02856 19.5546 6.00006 19.2306 6.00006H16.6476C16.3865 5.9938 16.1284 6.05652 15.8992 6.18188C15.6701 6.30723 15.4781 6.4908 15.3426 6.71406C15.1146 7.10256 15.1431 7.52856 15.1431 7.95906V8.17956L15.1416 8.23956C15.1326 8.40306 15.1791 8.10306 15.1431 8.22756L15.0981 8.38806C15.0711 8.47206 15.1791 8.23056 15.1131 8.34456C15.1024 8.3665 15.0909 8.38801 15.0786 8.40906C15.0591 8.43906 15.0306 8.46906 15.0186 8.50206C15.0231 8.49006 15.1281 8.37306 15.0516 8.44956L15.0006 8.50206C14.9811 8.51706 14.9661 8.53356 14.9466 8.55006C14.9688 8.53504 14.9903 8.51902 15.0111 8.50206L14.8686 8.58756C14.7486 8.65506 15.0216 8.53956 14.8896 8.57706C14.8581 8.58606 14.8251 8.59956 14.7921 8.61006C14.4357 8.73905 14.0853 8.8842 13.7421 9.04506C13.6761 9.07656 13.6071 9.10506 13.5426 9.14106C13.4616 9.18606 13.7046 9.09006 13.5696 9.12906L13.4496 9.15906C13.3146 9.19206 13.5846 9.15306 13.4916 9.15306L13.3926 9.15606C13.3686 9.15606 13.3386 9.15006 13.3146 9.15006C13.4646 9.13956 13.4286 9.16956 13.3581 9.15306C13.3056 9.14106 13.2381 9.10056 13.1871 9.10056L13.2756 9.13506C13.2512 9.12429 13.2276 9.11176 13.2051 9.09756C13.1781 9.08106 13.1316 9.03606 13.1031 9.03006C13.1721 9.03906 13.2021 9.11706 13.1436 9.05706L13.1106 9.02406L13.0836 8.99706L12.9216 8.83506C12.6141 8.52606 12.3186 8.19906 11.8641 8.12106C11.6138 8.07603 11.3563 8.09415 11.1148 8.17378C10.8733 8.2534 10.6555 8.39201 10.4811 8.57706L9.22108 9.83856L8.64808 10.4101L8.53558 10.5241C8.28058 10.7896 8.13958 11.1151 8.11108 11.4796C8.10079 11.6757 8.13045 11.8719 8.19826 12.0563C8.26607 12.2407 8.37063 12.4093 8.50558 12.5521C8.58058 12.6361 8.66608 12.7126 8.74408 12.7891L9.03808 13.0846C9.05158 13.0981 9.09208 13.1551 9.10258 13.1521C9.06808 13.1566 9.02158 13.0306 9.07258 13.1101C9.09508 13.1446 9.11458 13.1806 9.13408 13.2136C9.17308 13.2736 9.12208 13.2676 9.11458 13.1611C9.11458 13.1881 9.13858 13.2286 9.14758 13.2571L9.17158 13.3546C9.20458 13.4791 9.16558 13.1941 9.16558 13.3321C9.16558 13.3591 9.16858 13.3861 9.16558 13.4131V13.4551C9.15958 13.5286 9.16258 13.5091 9.17608 13.3951C9.15208 13.4356 9.14308 13.5256 9.13108 13.5706C9.10858 13.6606 9.20908 13.4161 9.14308 13.5436C9.12808 13.5736 9.11308 13.6036 9.10108 13.6336C9.05608 13.7236 9.01408 13.8136 8.97208 13.9051C8.85987 14.1599 8.75532 14.418 8.65858 14.6791C8.64808 14.7121 8.63758 14.7451 8.62408 14.7751C8.61508 14.7991 8.54308 14.9791 8.59708 14.8621C8.64958 14.7526 8.56408 14.9176 8.54608 14.9476C8.53408 14.9641 8.46358 15.0691 8.53408 14.9701C8.60158 14.8726 8.53258 14.9671 8.51458 14.9851C8.49958 15.0016 8.48008 15.0181 8.46358 15.0376C8.37058 15.1351 8.59858 14.9536 8.48458 15.0256C8.43658 15.0556 8.36458 15.0796 8.32408 15.1156C8.35708 15.1036 8.38558 15.0901 8.42008 15.0796C8.39692 15.0885 8.3734 15.0965 8.34958 15.1036C8.32558 15.1111 8.30008 15.1156 8.27908 15.1231C8.25958 15.1276 8.22508 15.1276 8.20558 15.1381L8.31058 15.1261L8.23558 15.1306C8.19208 15.1336 8.14858 15.1306 8.10808 15.1306C7.76758 15.1306 7.38508 15.0931 7.05658 15.1906C6.75642 15.2843 6.49408 15.4715 6.30788 15.7249C6.12168 15.9783 6.02136 16.2846 6.02158 16.5991C6.01258 17.1286 6.02158 17.6611 6.02158 18.1951V19.1266C6.02158 19.3621 6.00958 19.6006 6.07558 19.8286C6.26458 20.4811 6.86308 20.8846 7.52758 20.8846H8.19958L8.27458 20.8861C8.40808 20.8921 8.12458 20.8516 8.24458 20.8846C8.30458 20.8996 8.36458 20.9191 8.42308 20.9386C8.25808 20.8936 8.32558 20.8951 8.37808 20.9251C8.40508 20.9386 8.43208 20.9551 8.45608 20.9701C8.47558 20.9821 8.49658 21.0031 8.51608 21.0121C8.38558 20.9506 8.42608 20.9416 8.47708 20.9881L8.54158 21.0526C8.63458 21.1426 8.46058 20.9236 8.52958 21.0316C8.55958 21.0811 8.58508 21.1516 8.62108 21.1936C8.54608 21.1051 8.57608 21.0736 8.59408 21.1396C8.60758 21.1891 8.62708 21.2371 8.64208 21.2836C8.69908 21.4426 8.76208 21.5986 8.82658 21.7576C8.90158 21.9361 8.97658 22.1146 9.05908 22.2871C9.09208 22.3576 9.12058 22.4401 9.16408 22.5061C9.08458 22.3786 9.13108 22.4176 9.14608 22.4791C9.15658 22.5136 9.15658 22.5871 9.17758 22.6171C9.16708 22.6036 9.17008 22.4461 9.16708 22.5571C9.16708 22.5901 9.17008 22.6246 9.16708 22.6576C9.16558 22.7461 9.12358 22.7176 9.17758 22.6156C9.17008 22.6351 9.16708 22.6771 9.16258 22.6936C9.15358 22.7266 9.14608 22.7581 9.13558 22.7896C9.11158 22.8646 9.06958 22.8571 9.15058 22.7566C9.13858 22.7761 9.12808 22.8061 9.11308 22.8271C9.10024 22.8506 9.0857 22.8731 9.06958 22.8946C9.03808 22.9396 9.03808 22.9381 9.07258 22.8916C9.10708 22.8061 9.07258 22.8871 9.04258 22.9156L9.03958 22.9186L9.00508 22.9531L8.85508 23.1031L8.54458 23.4136C8.28399 23.6759 8.13149 24.0266 8.11732 24.3961C8.10315 24.7657 8.22835 25.127 8.46808 25.4086C8.57008 25.5361 8.69608 25.6456 8.81158 25.7626L9.49108 26.4436C9.84208 26.7946 10.1856 27.1516 10.5426 27.4951C11.1141 28.0426 11.9826 28.0501 12.5691 27.5251C12.7581 27.3541 12.9261 27.1636 13.1076 26.9881L13.1091 26.9851C13.1391 26.9551 13.2201 26.9251 13.1331 26.9551C13.0356 26.9926 13.1421 26.9536 13.1631 26.9356L13.2336 26.8951C13.3506 26.8186 13.0836 26.9386 13.2201 26.8966L13.2966 26.8726C13.3236 26.8636 13.3491 26.8621 13.3746 26.8531C13.5021 26.8186 13.2066 26.8621 13.3716 26.8561H13.4721C13.5816 26.8531 13.4271 26.8561 13.4121 26.8441C13.4421 26.8666 13.5666 26.8891 13.6086 26.8966C13.5036 26.8861 13.5006 26.8441 13.5636 26.8771C13.6071 26.9011 13.6536 26.9206 13.6986 26.9416L13.9281 27.0481C14.1898 27.1643 14.4554 27.2714 14.7246 27.3691C14.7653 27.3821 14.8053 27.3971 14.8446 27.4141C14.8656 27.4216 14.8866 27.4261 14.9091 27.4351C14.8847 27.4227 14.8597 27.4117 14.8341 27.4021C14.8791 27.4366 14.9481 27.4636 14.9976 27.4936C15.0891 27.5491 14.9541 27.4666 14.9481 27.4561C14.9601 27.4786 14.9976 27.5011 15.0156 27.5176C15.0351 27.5371 15.0576 27.5731 15.0771 27.5851C14.9991 27.5401 14.9991 27.4741 15.0396 27.5371C15.0591 27.5686 15.0816 27.5971 15.0966 27.6286C15.1266 27.6811 15.1416 27.7801 15.0906 27.5986C15.1056 27.6526 15.1251 27.7036 15.1386 27.7591C15.1536 27.8191 15.1371 27.8791 15.1371 27.7066C15.1371 27.7306 15.1431 27.7591 15.1431 27.7816V28.3981C15.1431 28.5931 15.1476 28.7926 15.2076 28.9801C15.3208 29.341 15.5698 29.6438 15.9021 29.8246C16.1991 29.9761 16.4991 30.0001 16.8216 30.0001H17.6916C18.2571 30.0001 18.8241 30.0031 19.3896 30.0001C19.9251 29.9986 20.4636 29.7316 20.7111 29.2411C20.9121 28.8481 20.8866 28.4416 20.8866 28.0171V27.8026C20.8866 27.7756 20.8971 27.7351 20.8926 27.7066C20.8866 27.7411 20.8836 27.7771 20.8791 27.8116C20.8851 27.7891 20.8881 27.7636 20.8956 27.7396L20.9151 27.6691C20.9166 27.6571 20.9241 27.6451 20.9256 27.6346C20.9496 27.5686 20.9421 27.5896 20.8986 27.6946C20.9331 27.6556 20.9526 27.5941 20.9796 27.5506C21.0321 27.4726 21.0336 27.5401 20.9496 27.5851C20.968 27.569 20.9847 27.5509 20.9991 27.5311L21.0651 27.4696C21.1041 27.4366 21.0816 27.4546 21.0006 27.5176C21.0201 27.5056 21.0411 27.4876 21.0621 27.4771C21.0921 27.4576 21.2571 27.3736 21.1491 27.4246C21.0321 27.4786 21.1731 27.4201 21.1866 27.4141L21.2841 27.3811C21.6406 27.2523 21.991 27.1071 22.3341 26.9461L22.4256 26.9011C22.4406 26.8936 22.4556 26.8891 22.4706 26.8801C22.4554 26.8862 22.4404 26.8927 22.4256 26.8996C22.493 26.8911 22.5591 26.874 22.6221 26.8486L22.5231 26.8606L22.6041 26.8561H22.6851C22.7961 26.8561 22.6371 26.8531 22.6251 26.8441C22.6506 26.8606 22.7106 26.8606 22.7406 26.8681L22.8156 26.8921C22.9461 26.9341 22.7061 26.8321 22.7841 26.8786C22.8141 26.8981 22.8441 26.9116 22.8726 26.9281L22.9251 26.9626L22.8681 26.9191C22.9296 27.0166 23.0571 27.1051 23.1381 27.1891L23.4306 27.4801C23.6901 27.7351 23.9991 27.8686 24.3561 27.9076C24.8241 27.9601 25.2456 27.7396 25.5651 27.4171L26.0976 26.8846L27.4026 25.5796L27.5016 25.4806C27.7641 25.2076 27.9066 24.8686 27.9261 24.4906C27.9308 24.2936 27.8956 24.0977 27.8227 23.9147C27.7497 23.7317 27.6405 23.5653 27.5016 23.4256C27.4236 23.3446 27.3411 23.2651 27.2631 23.1871C27.1746 23.0986 27.0816 23.0086 26.9931 22.9171C26.9871 22.9111 26.9391 22.8496 26.9316 22.8496C26.9511 22.8736 26.9661 22.8991 26.9856 22.9246C26.9555 22.8792 26.9265 22.8332 26.8986 22.7866C26.8281 22.6666 26.9361 22.9051 26.9091 22.8181C26.8986 22.7866 26.8881 22.7581 26.8791 22.7236C26.8701 22.6966 26.8671 22.6711 26.8596 22.6456C26.8281 22.5106 26.8656 22.7806 26.8656 22.6861C26.8656 22.6411 26.8806 22.5496 26.8671 22.5076L26.8551 22.6066C26.8598 22.581 26.8648 22.5555 26.8701 22.5301C26.8761 22.5031 26.8866 22.4776 26.8926 22.4506C26.9301 22.3156 26.8356 22.5601 26.8791 22.4791C26.8986 22.4431 26.9136 22.4041 26.9331 22.3696C26.9661 22.3036 26.9976 22.2346 27.0306 22.1641C27.1851 21.8266 27.3231 21.4816 27.4416 21.1291C27.5556 20.7946 27.3126 20.3746 26.9676 20.2966C26.7929 20.2608 26.6112 20.291 26.4575 20.3813C26.3038 20.4716 26.1889 20.6156 26.1351 20.7856H26.1336Z" fill="#003462"/>
<path d="M21.9307 18.0165C21.9307 18.1305 21.9262 18.2445 21.9187 18.3585L21.9037 18.5445L21.8932 18.6195C21.9127 18.4035 21.9052 18.534 21.8962 18.585C21.8586 18.8136 21.8045 19.0392 21.7342 19.26C21.7012 19.362 21.6592 19.4625 21.6232 19.5645C21.5782 19.686 21.6832 19.437 21.6427 19.5195L21.6052 19.6005C21.5812 19.6545 21.5527 19.7085 21.5272 19.761C21.3969 20.0141 21.2443 20.2551 21.0712 20.481C20.9962 20.5695 20.9167 20.6595 20.8357 20.7435C20.7622 20.8185 20.6857 20.8935 20.6062 20.961L20.4862 21.0675C20.4442 21.102 20.2582 21.228 20.4442 21.105C20.2552 21.2295 20.0782 21.363 19.8787 21.471C19.7857 21.5228 19.6906 21.5709 19.5937 21.615L19.5277 21.645C19.4302 21.69 19.5832 21.621 19.5892 21.618C19.5217 21.639 19.4557 21.672 19.3897 21.696C19.1782 21.771 18.9622 21.831 18.7417 21.8775C18.6877 21.888 18.6337 21.9 18.5797 21.9075C18.5587 21.9105 18.4342 21.927 18.5602 21.9135C18.6877 21.8985 18.5617 21.9135 18.5392 21.915C18.1839 21.9578 17.8247 21.9568 17.4697 21.912C17.4157 21.9075 17.3317 21.8775 17.5222 21.921C17.4975 21.9158 17.4724 21.9123 17.4472 21.9105L17.2852 21.8805C17.166 21.8569 17.0478 21.8278 16.9312 21.7935C16.8269 21.7643 16.7238 21.7308 16.6222 21.693L16.4722 21.6375C16.3717 21.6 16.5277 21.6615 16.5322 21.6645C16.2925 21.5601 16.0617 21.4362 15.8422 21.294C15.7522 21.2385 15.6697 21.1695 15.5827 21.1095C15.7687 21.231 15.5932 21.1185 15.5527 21.0825C15.3346 20.902 15.1342 20.7011 14.9542 20.4825C14.9167 20.4375 14.8042 20.265 14.9272 20.4525C14.9002 20.4105 14.8702 20.376 14.8417 20.3385C14.7101 20.1553 14.5938 19.9617 14.4937 19.7595C14.4667 19.704 14.4397 19.653 14.4157 19.5975L14.3857 19.533C14.3302 19.4085 14.4472 19.6905 14.3992 19.563C14.262 19.2248 14.1663 18.8712 14.1142 18.51C14.1592 18.699 14.1292 18.615 14.1232 18.5625L14.1037 18.3555C14.0887 18.1185 14.0887 17.877 14.1067 17.6385C14.1082 17.5905 14.1157 17.5395 14.1202 17.4885C14.1217 17.4675 14.1352 17.34 14.1217 17.4675C14.1082 17.5965 14.1217 17.4705 14.1277 17.448C14.1472 17.328 14.1697 17.208 14.2012 17.088C14.2552 16.8705 14.3302 16.665 14.4082 16.452C14.4412 16.368 14.3347 16.617 14.3887 16.497L14.4187 16.4325C14.4427 16.3785 14.4712 16.3245 14.4967 16.272C14.5966 16.0766 14.7104 15.8886 14.8372 15.7095C14.8672 15.666 14.9017 15.6255 14.9317 15.579C14.8072 15.7665 14.9317 15.579 14.9707 15.5355C15.1102 15.369 15.2617 15.2115 15.4252 15.0645C15.4672 15.024 15.5137 14.9865 15.5572 14.9475C15.5812 14.928 15.7252 14.8125 15.6277 14.892C15.5287 14.97 15.6772 14.8575 15.7027 14.8395C15.935 14.6742 16.1826 14.5315 16.4422 14.4135L16.5217 14.376C16.6027 14.337 16.3537 14.442 16.4767 14.3955L16.6117 14.343C16.8858 14.2435 17.1685 14.1697 17.4562 14.1225L17.5312 14.1105C17.3152 14.1495 17.4487 14.1225 17.4982 14.1165C17.7352 14.0902 17.9739 14.0812 18.2122 14.0895C18.3487 14.0949 18.4849 14.107 18.6202 14.1255C18.4177 14.106 18.5182 14.112 18.5692 14.1195L18.7687 14.154C18.9937 14.199 19.2142 14.2635 19.4317 14.3445L19.5817 14.4045C19.6672 14.436 19.4182 14.3295 19.5367 14.3835C19.5592 14.3955 19.5817 14.403 19.6027 14.4135C19.7107 14.463 19.8172 14.5185 19.9177 14.577C20.0107 14.6295 20.1022 14.685 20.1907 14.742L20.3242 14.8305C20.3677 14.8605 20.5462 15.009 20.3722 14.862C20.5432 15.009 20.7142 15.15 20.8702 15.312C20.9452 15.387 21.0127 15.4695 21.0802 15.5505C21.1117 15.585 21.1402 15.624 21.1702 15.6615C21.0202 15.4875 21.1702 15.663 21.2032 15.7095C21.3322 15.894 21.4492 16.089 21.5482 16.2885C21.5722 16.338 21.5977 16.386 21.6187 16.4355C21.6307 16.4565 21.6382 16.479 21.6487 16.5C21.7042 16.62 21.5977 16.3695 21.6292 16.455C21.6712 16.5675 21.7162 16.68 21.7537 16.7925C21.8252 17.0141 21.8798 17.2407 21.9172 17.4705C21.9007 17.343 21.9172 17.4675 21.9187 17.4915L21.9337 17.6595C21.9292 17.7765 21.9322 17.898 21.9322 18.0165C21.9337 18.372 22.2427 18.7095 22.6072 18.6945C22.9732 18.678 23.2882 18.396 23.2837 18.0165C23.2832 16.9318 22.9491 15.8734 22.3267 14.985C21.6925 14.097 20.8054 13.4206 19.7812 13.044C17.7577 12.297 15.3412 12.9555 13.9732 14.625C13.2663 15.4809 12.8395 16.5335 12.7507 17.64C12.671 18.7062 12.9183 19.7713 13.4597 20.6933C14.0011 21.6153 14.8108 22.3502 15.7807 22.8C16.8189 23.2753 17.9811 23.4092 19.1002 23.1825C21.1702 22.7685 22.8847 21 23.2102 18.9075C23.2552 18.612 23.2882 18.3165 23.2882 18.0165C23.2897 17.661 22.9762 17.3235 22.6117 17.3415C22.4331 17.3442 22.2625 17.416 22.1358 17.5419C22.009 17.6678 21.9361 17.8379 21.9322 18.0165H21.9307Z" fill="#003462"/>
</g>
<defs>
<clipPath id="clip0_15_2972">
<rect width="24" height="24" fill="white" transform="translate(6.01562 6)"/>
</clipPath>
</defs>
</svg>
