<svg width="39" height="40" viewBox="0 0 39 40" fill="none" xmlns="http://www.w3.org/2000/svg">
<path d="M0 0H35C37.2091 0 39 1.79086 39 4V36C39 38.2091 37.2091 40 35 40H0V0Z" fill="#8DEF97"/>
<path d="M23.7778 17.9248C23.7778 17.9248 23.8021 17.9491 23.8506 17.9976C23.8991 18.0461 23.9234 18.1368 23.9234 18.2696C23.9234 18.4025 23.8749 18.5174 23.7778 18.6145L20.3449 22.0474C20.2478 22.1445 20.1329 22.193 20 22.193C19.8672 22.193 19.7523 22.1445 19.6552 22.0474L16.2223 18.6145C16.1252 18.5174 16.0767 18.4025 16.0767 18.2696C16.0767 18.1368 16.1252 18.0219 16.2223 17.9248C16.3193 17.8277 16.4343 17.7792 16.5671 17.7792H23.433C23.5658 17.7792 23.6807 17.8277 23.7778 17.9248Z" fill="white"/>
</svg>
