<svg width="35" height="35" viewBox="0 0 35 35" fill="none" xmlns="http://www.w3.org/2000/svg">
<rect width="35" height="35" rx="17.5" fill="#F8F4F9"/>
<path d="M11.5414 15.6933H23.4586C23.6441 15.6933 23.7959 15.8451 23.7959 16.0306V23.3384C23.7959 24.0832 23.1916 24.6875 22.4468 24.6875H12.5533C11.8084 24.6875 11.2041 24.0832 11.2041 23.3384V16.0306C11.2041 15.8451 11.3559 15.6933 11.5414 15.6933ZM23.7959 14.4567V13.4448C23.7959 12.7 23.1916 12.0957 22.4468 12.0957H21.0977V10.6342C21.0977 10.4487 20.9459 10.2969 20.7604 10.2969H19.6361C19.4506 10.2969 19.2989 10.4487 19.2989 10.6342V12.0957H15.7012V10.6342C15.7012 10.4487 15.5494 10.2969 15.3639 10.2969H14.2397C14.0542 10.2969 13.9024 10.4487 13.9024 10.6342V12.0957H12.5533C11.8084 12.0957 11.2041 12.7 11.2041 13.4448V14.4567C11.2041 14.6422 11.3559 14.7939 11.5414 14.7939H23.4586C23.6441 14.7939 23.7959 14.6422 23.7959 14.4567Z" fill="#621F86"/>
</svg>
