<svg width="100" height="101" viewBox="0 0 100 101" fill="none" xmlns="http://www.w3.org/2000/svg">
<rect y="0.453125" width="100" height="100" rx="50" fill="#E3F2FA"/>
<path d="M30 50.1498V34.2031C30 32.132 31.6789 30.4531 33.75 30.4531H49.6967C50.6913 30.4531 51.6451 30.8482 52.3484 31.5515L68.9016 48.1048C70.3661 49.5692 70.3661 51.9436 68.9016 53.408L52.9549 69.3548C51.4905 70.8192 49.1161 70.8192 47.6516 69.3548L31.0984 52.8015C30.3951 52.0982 30 51.1444 30 50.1498ZM38.75 35.4531C36.6789 35.4531 35 37.132 35 39.2031C35 41.2742 36.6789 42.9531 38.75 42.9531C40.8211 42.9531 42.5 41.2742 42.5 39.2031C42.5 37.132 40.8211 35.4531 38.75 35.4531Z" fill="#006FBA"/>
</svg>
