<svg width="108" height="64" viewBox="0 0 108 64" fill="none" xmlns="http://www.w3.org/2000/svg">
<g filter="url(#filter0_d_11_2106)">
<path d="M30.6423 25.3266L16.8999 21.9333C15.3094 21.5467 14.2023 20.2904 14.2023 18.8944C14.2023 17.144 15.8819 15.7266 17.956 15.7266H26.3923C27.9447 15.7266 29.4717 16.1239 30.7441 16.8541C31.5203 17.2944 32.5637 17.187 33.2254 16.6393L37.6535 12.9883C38.5569 12.2474 38.4297 11.0125 37.4244 10.3574C34.3069 8.2957 30.4133 7.1467 26.4178 7.13596V1.98158C26.4178 1.03662 25.5016 0.263458 24.3819 0.263458H20.3101C19.1903 0.263458 18.2741 1.03662 18.2741 1.98158V7.13596H17.956C9.85056 7.13596 3.33565 13.0098 4.08639 19.979C4.62082 24.9293 9.09982 28.9562 14.7495 30.3521L27.792 33.5736C29.3826 33.9709 30.4896 35.2166 30.4896 36.6126C30.4896 38.3629 28.81 39.7804 26.7359 39.7804H18.2996C16.7472 39.7804 15.2203 39.383 13.9478 38.6528C13.1716 38.2126 12.1282 38.32 11.4666 38.8676L7.03846 42.5186C6.13503 43.2596 6.26227 44.4945 7.2675 45.1495C10.385 47.2113 14.2787 48.3603 18.2741 48.371V53.5254C18.2741 54.4703 19.1903 55.2435 20.3101 55.2435H24.3819C25.5016 55.2435 26.4178 54.4703 26.4178 53.5254V48.3495C32.3474 48.2529 37.908 45.2784 39.8675 40.5428C42.6033 33.928 38.0098 27.1414 30.6423 25.3266Z" fill="#31BB6B"/>
</g>
<defs>
<filter id="filter0_d_11_2106" x="0.0274048" y="0.263458" width="44.6385" height="62.98" filterUnits="userSpaceOnUse" color-interpolation-filters="sRGB">
<feFlood flood-opacity="0" result="BackgroundImageFix"/>
<feColorMatrix in="SourceAlpha" type="matrix" values="0 0 0 0 0 0 0 0 0 0 0 0 0 0 0 0 0 0 127 0" result="hardAlpha"/>
<feOffset dy="4"/>
<feGaussianBlur stdDeviation="2"/>
<feComposite in2="hardAlpha" operator="out"/>
<feColorMatrix type="matrix" values="0 0 0 0 0 0 0 0 0 0 0 0 0 0 0 0 0 0 0.25 0"/>
<feBlend mode="normal" in2="BackgroundImageFix" result="effect1_dropShadow_11_2106"/>
<feBlend mode="normal" in="SourceGraphic" in2="effect1_dropShadow_11_2106" result="shape"/>
</filter>
</defs>
</svg>
