<svg width="15" height="14" viewBox="0 0 15 14" fill="none" xmlns="http://www.w3.org/2000/svg">
<path d="M0.796875 6.89385V1.3125C0.796875 0.587617 1.38449 0 2.10938 0H7.69073C8.03882 1.82021e-06 8.37266 0.138284 8.6188 0.384426L14.4124 6.17807C14.925 6.69063 14.925 7.52166 14.4124 8.03422L8.8311 13.6156C8.31854 14.1281 7.48751 14.1281 6.97495 13.6156L1.1813 7.82193C0.935159 7.57579 0.796877 7.24195 0.796875 6.89385ZM3.85938 1.75C3.13449 1.75 2.54688 2.33762 2.54688 3.0625C2.54688 3.78738 3.13449 4.375 3.85938 4.375C4.58426 4.375 5.17188 3.78738 5.17188 3.0625C5.17188 2.33762 4.58426 1.75 3.85938 1.75Z" fill="white"/>
</svg>
