<svg width="13" height="15" viewBox="0 0 13 15" fill="none" xmlns="http://www.w3.org/2000/svg">
<path d="M4.34375 8.625H3.25C3.06953 8.625 2.92188 8.47734 2.92188 8.29688V7.20312C2.92188 7.02266 3.06953 6.875 3.25 6.875H4.34375C4.52422 6.875 4.67188 7.02266 4.67188 7.20312V8.29688C4.67188 8.47734 4.52422 8.625 4.34375 8.625ZM7.29688 8.29688V7.20312C7.29688 7.02266 7.14922 6.875 6.96875 6.875H5.875C5.69453 6.875 5.54688 7.02266 5.54688 7.20312V8.29688C5.54688 8.47734 5.69453 8.625 5.875 8.625H6.96875C7.14922 8.625 7.29688 8.47734 7.29688 8.29688ZM9.92188 8.29688V7.20312C9.92188 7.02266 9.77422 6.875 9.59375 6.875H8.5C8.31953 6.875 8.17188 7.02266 8.17188 7.20312V8.29688C8.17188 8.47734 8.31953 8.625 8.5 8.625H9.59375C9.77422 8.625 9.92188 8.47734 9.92188 8.29688ZM7.29688 10.9219V9.82812C7.29688 9.64766 7.14922 9.5 6.96875 9.5H5.875C5.69453 9.5 5.54688 9.64766 5.54688 9.82812V10.9219C5.54688 11.1023 5.69453 11.25 5.875 11.25H6.96875C7.14922 11.25 7.29688 11.1023 7.29688 10.9219ZM4.67188 10.9219V9.82812C4.67188 9.64766 4.52422 9.5 4.34375 9.5H3.25C3.06953 9.5 2.92188 9.64766 2.92188 9.82812V10.9219C2.92188 11.1023 3.06953 11.25 3.25 11.25H4.34375C4.52422 11.25 4.67188 11.1023 4.67188 10.9219ZM9.92188 10.9219V9.82812C9.92188 9.64766 9.77422 9.5 9.59375 9.5H8.5C8.31953 9.5 8.17188 9.64766 8.17188 9.82812V10.9219C8.17188 11.1023 8.31953 11.25 8.5 11.25H9.59375C9.77422 11.25 9.92188 11.1023 9.92188 10.9219ZM12.5469 3.8125V13.4375C12.5469 14.1621 11.959 14.75 11.2344 14.75H1.60938C0.884766 14.75 0.296875 14.1621 0.296875 13.4375V3.8125C0.296875 3.08789 0.884766 2.5 1.60938 2.5H2.92188V1.07812C2.92188 0.897656 3.06953 0.75 3.25 0.75H4.34375C4.52422 0.75 4.67188 0.897656 4.67188 1.07812V2.5H8.17188V1.07812C8.17188 0.897656 8.31953 0.75 8.5 0.75H9.59375C9.77422 0.75 9.92188 0.897656 9.92188 1.07812V2.5H11.2344C11.959 2.5 12.5469 3.08789 12.5469 3.8125ZM11.2344 13.2734V5.125H1.60938V13.2734C1.60938 13.3637 1.6832 13.4375 1.77344 13.4375H11.0703C11.1605 13.4375 11.2344 13.3637 11.2344 13.2734Z" fill="#333333"/>
</svg>
