<svg width="10" height="15" viewBox="0 0 10 15" fill="none" xmlns="http://www.w3.org/2000/svg">
<g clip-path="url(#clip0_11_2701)">
<path d="M6.17607 7.04121C6.17607 7.04121 6.27185 6.94542 6.46342 6.75385C6.65499 6.56228 6.75078 6.19574 6.75078 5.65423C6.75078 5.11273 6.55921 4.6504 6.17607 4.26726C5.79293 3.88412 5.3306 3.69255 4.78909 3.69255C4.24759 3.69255 3.78526 3.88412 3.40212 4.26726C3.01898 4.6504 2.82741 5.11273 2.82741 5.65423C2.82741 6.19574 3.01898 6.65806 3.40212 7.04121C3.78526 7.42435 4.24759 7.61592 4.78909 7.61592C5.3306 7.61592 5.79293 7.42435 6.17607 7.04121ZM8.71247 5.65423C8.71247 6.21107 8.62817 6.66828 8.45959 7.02588L5.67032 12.9569C5.58858 13.1255 5.46726 13.2583 5.30634 13.3554C5.14542 13.4524 4.973 13.501 4.78909 13.501C4.60519 13.501 4.43277 13.4524 4.27185 13.3554C4.11093 13.2583 3.99216 13.1255 3.91553 12.9569L1.1186 7.02588C0.950014 6.66828 0.865723 6.21107 0.865723 5.65423C0.865723 4.57122 1.24886 3.64657 2.01515 2.88029C2.78143 2.114 3.70608 1.73086 4.78909 1.73086C5.87211 1.73086 6.79676 2.114 7.56304 2.88029C8.32932 3.64657 8.71247 4.57122 8.71247 5.65423Z" fill="#AAAAAA"/>
</g>
<defs>
<clipPath id="clip0_11_2701">
<rect width="8.92188" height="14" fill="white" transform="matrix(1 0 0 -1 0.328125 14.75)"/>
</clipPath>
</defs>
</svg>
