<svg width="15" height="15" viewBox="0 0 15 15" fill="none" xmlns="http://www.w3.org/2000/svg">
<path d="M14.1867 9.38243L13.0218 8.70977C13.1394 8.0754 13.1394 7.42462 13.0218 6.79024L14.1867 6.11759C14.3207 6.04102 14.3808 5.88243 14.3371 5.73477C14.0336 4.76134 13.5168 3.88087 12.8414 3.14805C12.7375 3.03594 12.5679 3.0086 12.4367 3.08516L11.2718 3.75782C10.7824 3.33673 10.2191 3.01134 9.60935 2.79805V1.45548C9.60935 1.30235 9.50271 1.16837 9.35232 1.13555C8.3488 0.911335 7.32068 0.922273 6.36638 1.13555C6.21599 1.16837 6.10935 1.30235 6.10935 1.45548V2.80079C5.50232 3.0168 4.93903 3.34219 4.44685 3.76055L3.28474 3.0879C3.15075 3.01134 2.98396 3.03594 2.88005 3.15079C2.20466 3.88087 1.68786 4.76134 1.38435 5.73751C1.33786 5.88516 1.40075 6.04376 1.53474 6.12032L2.69958 6.79298C2.582 7.42735 2.582 8.07813 2.69958 8.71251L1.53474 9.38516C1.40075 9.46173 1.3406 9.62032 1.38435 9.76798C1.68786 10.7414 2.20466 11.6219 2.88005 12.3547C2.98396 12.4668 3.15349 12.4941 3.28474 12.4176L4.44958 11.7449C4.93903 12.166 5.50232 12.4914 6.11208 12.7047V14.05C6.11208 14.2031 6.21872 14.3371 6.36911 14.3699C7.37263 14.5941 8.40075 14.5832 9.35505 14.3699C9.50544 14.3371 9.61208 14.2031 9.61208 14.05V12.7047C10.2191 12.4887 10.7824 12.1633 11.2746 11.7449L12.4394 12.4176C12.5734 12.4941 12.7402 12.4695 12.8441 12.3547C13.5195 11.6246 14.0363 10.7441 14.3398 9.76798C14.3808 9.61759 14.3207 9.45899 14.1867 9.38243ZM7.85935 9.93751C6.65349 9.93751 5.67185 8.95587 5.67185 7.75001C5.67185 6.54415 6.65349 5.56251 7.85935 5.56251C9.06521 5.56251 10.0468 6.54415 10.0468 7.75001C10.0468 8.95587 9.06521 9.93751 7.85935 9.93751Z" fill="#333333"/>
</svg>
