<svg width="21" height="15" viewBox="0 0 21 15" fill="none" xmlns="http://www.w3.org/2000/svg">
<path d="M9.65309 10.7509L14.3581 6.04592C14.4551 5.94886 14.5037 5.83392 14.5037 5.70109C14.5037 5.56827 14.4551 5.45333 14.3581 5.35627L13.5765 4.57466C13.4794 4.47759 13.3645 4.42906 13.2316 4.42906C13.0988 4.42906 12.9839 4.47759 12.8868 4.57466L9.30827 8.1532L7.69141 6.53634C7.59435 6.43928 7.4794 6.39075 7.34658 6.39075C7.21376 6.39075 7.09882 6.43928 7.00175 6.53634L6.22014 7.31795C6.12308 7.41501 6.07455 7.52996 6.07455 7.66278C6.07455 7.7956 6.12308 7.91054 6.22014 8.00761L8.96344 10.7509C9.0605 10.848 9.17544 10.8965 9.30827 10.8965C9.44109 10.8965 9.55603 10.848 9.65309 10.7509ZM16.1742 3.98462V11.3409C16.1742 11.9489 15.9583 12.4687 15.5267 12.9003C15.095 13.332 14.5752 13.5478 13.9673 13.5478H6.61095C6.00303 13.5478 5.48324 13.332 5.05156 12.9003C4.61989 12.4687 4.40405 11.9489 4.40405 11.3409V3.98462C4.40405 3.3767 4.61989 2.8569 5.05156 2.42523C5.48324 1.99356 6.00303 1.77772 6.61095 1.77772H13.9673C14.5752 1.77772 15.095 1.99356 15.5267 2.42523C15.9583 2.8569 16.1742 3.3767 16.1742 3.98462Z" fill="#EEEEEE"/>
</svg>
