<svg width="13" height="15" viewBox="0 0 13 15" fill="none" xmlns="http://www.w3.org/2000/svg">
<g clip-path="url(#clip0_11_2681)">
<path d="M12.1837 10.0644C12.1837 10.2024 12.1581 10.3825 12.1071 10.6047C12.056 10.8269 12.0023 11.0019 11.9461 11.1296C11.8389 11.385 11.5272 11.6558 11.0113 11.9418C10.5311 12.2024 10.056 12.3326 9.58598 12.3326C9.44805 12.3326 9.31395 12.3237 9.18368 12.3058C9.05341 12.2879 8.90654 12.256 8.74307 12.21C8.57959 12.1641 8.45827 12.127 8.37908 12.0989C8.2999 12.0708 8.15814 12.0185 7.9538 11.9418C7.74945 11.8652 7.62429 11.8192 7.57832 11.8039C7.07768 11.6251 6.63068 11.4131 6.23732 11.1679C5.58343 10.7643 4.90782 10.2139 4.2105 9.51655C3.51318 8.81923 2.96274 8.14363 2.55916 7.48973C2.31395 7.09637 2.10194 6.64937 1.92314 6.14873C1.90782 6.10276 1.86184 5.9776 1.78521 5.77326C1.70859 5.56891 1.65622 5.42715 1.62813 5.34797C1.60003 5.26879 1.56299 5.14746 1.51701 4.98398C1.47104 4.82051 1.43911 4.67364 1.42123 4.54337C1.40335 4.4131 1.39441 4.279 1.39441 4.14107C1.39441 3.67108 1.52468 3.19599 1.78521 2.71578C2.07129 2.19982 2.34205 1.8882 2.59747 1.78092C2.72519 1.72472 2.90016 1.67108 3.12238 1.62C3.3446 1.56891 3.52468 1.54337 3.66261 1.54337C3.73413 1.54337 3.78777 1.55103 3.82353 1.56636C3.91548 1.59701 4.05086 1.79114 4.22966 2.14873C4.28585 2.2458 4.36248 2.38373 4.45954 2.56253C4.55661 2.74133 4.64601 2.90352 4.72774 3.04912C4.80948 3.19471 4.88866 3.33137 4.96529 3.45908C4.98062 3.47951 5.02532 3.54337 5.09939 3.65065C5.17346 3.75793 5.22838 3.84861 5.26414 3.92268C5.2999 3.99675 5.31778 4.06955 5.31778 4.14107C5.31778 4.24324 5.24498 4.37096 5.09939 4.52421C4.9538 4.67747 4.79543 4.81796 4.62429 4.94567C4.45316 5.07338 4.29479 5.20876 4.1492 5.3518C4.0036 5.49484 3.93081 5.61234 3.93081 5.70429C3.93081 5.75027 3.94358 5.80774 3.96912 5.8767C3.99466 5.94567 4.01638 5.99803 4.03426 6.03379C4.05214 6.06955 4.0879 6.13085 4.14154 6.2177C4.19518 6.30454 4.22455 6.35308 4.22966 6.36329C4.61791 7.06317 5.06235 7.66342 5.56299 8.16406C6.06363 8.6647 6.66389 9.10914 7.36376 9.49739C7.37397 9.5025 7.42251 9.53188 7.50935 9.58552C7.5962 9.63916 7.6575 9.67492 7.69326 9.6928C7.72902 9.71068 7.78138 9.73239 7.85035 9.75793C7.91931 9.78347 7.97678 9.79624 8.02276 9.79624C8.11472 9.79624 8.23221 9.72345 8.37525 9.57785C8.51829 9.43226 8.65367 9.27389 8.78138 9.10276C8.9091 8.93162 9.04958 8.77325 9.20284 8.62766C9.35609 8.48207 9.48381 8.40927 9.58598 8.40927C9.6575 8.40927 9.7303 8.42715 9.80437 8.46291C9.87844 8.49867 9.96912 8.55359 10.0764 8.62766C10.1837 8.70174 10.2475 8.74643 10.268 8.76176C10.3957 8.83839 10.5323 8.91757 10.6779 8.99931C10.8235 9.08105 10.9857 9.17045 11.1645 9.26751C11.3433 9.36457 11.4813 9.4412 11.5783 9.49739C11.9359 9.67619 12.13 9.81157 12.1607 9.90352C12.176 9.93928 12.1837 9.99292 12.1837 10.0644Z" fill="#AAAAAA"/>
</g>
<defs>
<clipPath id="clip0_11_2681">
<rect width="12.2656" height="14" fill="white" transform="matrix(1 0 0 -1 0.65625 14.5625)"/>
</clipPath>
</defs>
</svg>
