<svg width="8" height="15" viewBox="0 0 8 15" fill="none" xmlns="http://www.w3.org/2000/svg">
<g clip-path="url(#clip0_11_2686)">
<path d="M4.22985 12.0816C4.22985 12.0816 4.25986 12.0516 4.31989 11.9916C4.37991 11.9316 4.40993 11.8173 4.40993 11.6487C4.40993 11.4801 4.3499 11.3358 4.22985 11.2157C4.1098 11.0957 3.96548 11.0356 3.7969 11.0356C3.62832 11.0356 3.484 11.0957 3.36395 11.2157C3.2439 11.3358 3.18387 11.4801 3.18387 11.6487C3.18387 11.8173 3.2439 11.9616 3.36395 12.0816C3.484 12.2017 3.62832 12.2617 3.7969 12.2617C3.96548 12.2617 4.1098 12.2017 4.22985 12.0816ZM6.0038 10.4226V5.02798C6.0038 4.96157 5.97953 4.9041 5.931 4.85557C5.88247 4.80704 5.825 4.78277 5.75858 4.78277H1.83521C1.7688 4.78277 1.71133 4.80704 1.6628 4.85557C1.61427 4.9041 1.59 4.96157 1.59 5.02798V10.4226C1.59 10.489 1.61427 10.5465 1.6628 10.595C1.71133 10.6436 1.7688 10.6678 1.83521 10.6678H5.75858C5.825 10.6678 5.88247 10.6436 5.931 10.595C5.97953 10.5465 6.0038 10.489 6.0038 10.4226ZM4.40993 4.04714C4.49166 4.04714 4.53253 4.00627 4.53253 3.92454C4.53253 3.8428 4.49166 3.80193 4.40993 3.80193H3.18387C3.10214 3.80193 3.06127 3.8428 3.06127 3.92454C3.06127 4.00627 3.10214 4.04714 3.18387 4.04714H4.40993ZM6.73943 3.80193V11.6487C6.73943 11.9143 6.64236 12.1442 6.44824 12.3383C6.25411 12.5325 6.02423 12.6295 5.75858 12.6295H1.83521C1.56957 12.6295 1.33968 12.5325 1.14556 12.3383C0.951433 12.1442 0.85437 11.9143 0.85437 11.6487V3.80193C0.85437 3.53629 0.951433 3.3064 1.14556 3.11228C1.33968 2.91815 1.56957 2.82109 1.83521 2.82109H5.75858C6.02423 2.82109 6.25411 2.91815 6.44824 3.11228C6.64236 3.3064 6.73943 3.53629 6.73943 3.80193Z" fill="#AAAAAA"/>
</g>
<defs>
<clipPath id="clip0_11_2686">
<rect width="6.6875" height="14" fill="white" transform="matrix(1 0 0 -1 0.453125 14.8594)"/>
</clipPath>
</defs>
</svg>
