<svg width="15" height="14" viewBox="0 0 15 14" fill="none" xmlns="http://www.w3.org/2000/svg">
<path d="M7.42188 0.21875C3.67578 0.21875 0.640625 3.25391 0.640625 7C0.640625 10.7461 3.67578 13.7812 7.42188 13.7812C11.168 13.7812 14.2031 10.7461 14.2031 7C14.2031 3.25391 11.168 0.21875 7.42188 0.21875ZM11.3594 7.76562C11.3594 7.94609 11.2117 8.09375 11.0312 8.09375H8.51562V10.6094C8.51562 10.7898 8.36797 10.9375 8.1875 10.9375H6.65625C6.47578 10.9375 6.32812 10.7898 6.32812 10.6094V8.09375H3.8125C3.63203 8.09375 3.48438 7.94609 3.48438 7.76562V6.23438C3.48438 6.05391 3.63203 5.90625 3.8125 5.90625H6.32812V3.39062C6.32812 3.21016 6.47578 3.0625 6.65625 3.0625H8.1875C8.36797 3.0625 8.51562 3.21016 8.51562 3.39062V5.90625H11.0312C11.2117 5.90625 11.3594 6.05391 11.3594 6.23438V7.76562Z" fill="white"/>
</svg>
