<svg width="17" height="15" viewBox="0 0 17 15" fill="none" xmlns="http://www.w3.org/2000/svg">
<path d="M6.63993 3.0988H10.5633V2.11796H6.63993V3.0988ZM3.94261 3.0988V12.9072H3.45219C2.98221 12.9072 2.57863 12.7386 2.24146 12.4015C1.9043 12.0643 1.73572 11.6607 1.73572 11.1908V4.81527C1.73572 4.34529 1.9043 3.94171 2.24146 3.60454C2.57863 3.26738 2.98221 3.0988 3.45219 3.0988H3.94261ZM12.525 3.0988V12.9072H4.67825V3.0988H5.65909V1.87274C5.65909 1.6684 5.73061 1.49471 5.87365 1.35167C6.01669 1.20863 6.19038 1.13711 6.39472 1.13711H10.8085C11.0129 1.13711 11.1865 1.20863 11.3296 1.35167C11.4726 1.49471 11.5441 1.6684 11.5441 1.87274V3.0988H12.525ZM15.4675 4.81527V11.1908C15.4675 11.6607 15.2989 12.0643 14.9618 12.4015C14.6246 12.7386 14.221 12.9072 13.751 12.9072H13.2606V3.0988H13.751C14.221 3.0988 14.6246 3.26738 14.9618 3.60454C15.2989 3.94171 15.4675 4.34529 15.4675 4.81527Z" fill="#AAAAAA"/>
</svg>
