<svg width="17" height="15" viewBox="0 0 17 15" fill="none" xmlns="http://www.w3.org/2000/svg">
<path d="M14.4867 11.978V6.09299C14.3232 6.2769 14.147 6.44548 13.9579 6.59874C12.5888 7.6511 11.5007 8.51445 10.6936 9.18878C10.433 9.40844 10.221 9.57958 10.0576 9.70219C9.89408 9.82479 9.67314 9.94867 9.39472 10.0738C9.1163 10.199 8.85449 10.2616 8.60928 10.2616H8.60162H8.59396C8.34874 10.2616 8.08693 10.199 7.80851 10.0738C7.5301 9.94867 7.30915 9.82479 7.14568 9.70219C6.98221 9.57958 6.7702 9.40844 6.50966 9.18878C5.70251 8.51445 4.61439 7.6511 3.2453 6.59874C3.05628 6.44548 2.88003 6.2769 2.71656 6.09299V11.978C2.71656 12.0445 2.74083 12.1019 2.78936 12.1505C2.83789 12.199 2.89536 12.2233 2.96177 12.2233H14.2415C14.3079 12.2233 14.3653 12.199 14.4139 12.1505C14.4624 12.1019 14.4867 12.0445 14.4867 11.978ZM14.4867 3.92441C14.4867 3.91419 14.4867 3.8861 14.4867 3.84012C14.4867 3.79414 14.4867 3.75966 14.4867 3.73667C14.4867 3.71368 14.4854 3.68048 14.4828 3.63705C14.4803 3.59363 14.4726 3.5617 14.4599 3.54127C14.4471 3.52083 14.433 3.49784 14.4177 3.4723C14.4024 3.44676 14.3794 3.4276 14.3487 3.41483C14.3181 3.40206 14.2823 3.39567 14.2415 3.39567H2.96177C2.89536 3.39567 2.83789 3.41994 2.78936 3.46847C2.74083 3.517 2.71656 3.57447 2.71656 3.64088C2.71656 4.49912 3.09204 5.22454 3.843 5.81713C4.82895 6.59363 5.85321 7.40334 6.91579 8.24625C6.94645 8.27179 7.03585 8.34714 7.18399 8.4723C7.33214 8.59746 7.44964 8.69325 7.53648 8.75966C7.62333 8.82607 7.73699 8.90653 7.87748 9.00104C8.01797 9.09555 8.14696 9.16579 8.26445 9.21176C8.38195 9.25774 8.49178 9.28073 8.59396 9.28073H8.60162H8.60928C8.71145 9.28073 8.82129 9.25774 8.93878 9.21176C9.05628 9.16579 9.18527 9.09555 9.32576 9.00104C9.46624 8.90653 9.57991 8.82607 9.66675 8.75966C9.7536 8.69325 9.87109 8.59746 10.0192 8.4723C10.1674 8.34714 10.2568 8.27179 10.2874 8.24625C11.35 7.40334 12.3743 6.59363 13.3602 5.81713C13.6361 5.59746 13.8928 5.30244 14.1304 4.93207C14.3679 4.5617 14.4867 4.22581 14.4867 3.92441ZM15.4675 3.64088V11.978C15.4675 12.3152 15.3475 12.6038 15.1074 12.8439C14.8673 13.0841 14.5786 13.2041 14.2415 13.2041H2.96177C2.62461 13.2041 2.33597 13.0841 2.09587 12.8439C1.85577 12.6038 1.73572 12.3152 1.73572 11.978V3.64088C1.73572 3.30372 1.85577 3.01509 2.09587 2.77498C2.33597 2.53488 2.62461 2.41483 2.96177 2.41483H14.2415C14.5786 2.41483 14.8673 2.53488 15.1074 2.77498C15.3475 3.01509 15.4675 3.30372 15.4675 3.64088Z" fill="#AAAAAA"/>
</svg>
