<svg width="12" height="15" viewBox="0 0 12 15" fill="none" xmlns="http://www.w3.org/2000/svg">
<g clip-path="url(#clip0_11_2396)">
<path d="M11.2072 5.93672V7.40798C11.2072 7.61232 11.1357 7.78602 10.9927 7.92906C10.8496 8.07209 10.676 8.14361 10.4716 8.14361H7.28387V11.3314C7.28387 11.5357 7.21235 11.7094 7.06931 11.8524C6.92627 11.9955 6.75258 12.067 6.54824 12.067H5.07697C4.87263 12.067 4.69894 11.9955 4.5559 11.8524C4.41286 11.7094 4.34134 11.5357 4.34134 11.3314V8.14361H1.1536C0.949259 8.14361 0.775568 8.07209 0.632528 7.92906C0.489489 7.78602 0.417969 7.61232 0.417969 7.40798V5.93672C0.417969 5.73238 0.489489 5.55869 0.632528 5.41565C0.775568 5.27261 0.949259 5.20109 1.1536 5.20109H4.34134V2.01335C4.34134 1.809 4.41286 1.63531 4.5559 1.49227C4.69894 1.34923 4.87263 1.27771 5.07697 1.27771H6.54824C6.75258 1.27771 6.92627 1.34923 7.06931 1.49227C7.21235 1.63531 7.28387 1.809 7.28387 2.01335V5.20109H10.4716C10.676 5.20109 10.8496 5.27261 10.9927 5.41565C11.1357 5.55869 11.2072 5.73238 11.2072 5.93672Z" fill="white"/>
</g>
<defs>
<clipPath id="clip0_11_2396">
<rect width="11" height="14" fill="white" transform="matrix(1 0 0 -1 0.3125 14.2969)"/>
</clipPath>
</defs>
</svg>
