<svg width="25" height="24" viewBox="0 0 25 24" fill="none" xmlns="http://www.w3.org/2000/svg">
<g clip-path="url(#clip0_11_2658)">
<path fill-rule="evenodd" clip-rule="evenodd" d="M13.7605 2.41208C13.7291 2.38077 13.702 2.34625 13.6793 2.30943C13.1553 1.50229 12.3925 1.12765 11.7644 1.12501C11.1699 1.12252 10.6459 1.44402 10.4529 2.201C10.2486 3.00197 10.7448 3.87418 11.5279 4.69913L14.1582 7.47031L16.7886 4.69913C17.5717 3.87418 18.0679 3.00197 17.8637 2.201C17.6706 1.44402 17.1467 1.12252 16.5521 1.12501C15.924 1.12765 15.1612 1.50229 14.6372 2.30942C14.6145 2.34625 14.5874 2.38076 14.556 2.41208C14.5081 2.46004 14.4528 2.49802 14.3931 2.52538C14.3178 2.56009 14.2376 2.57682 14.1582 2.57674C14.0117 2.57661 13.8674 2.51921 13.7605 2.41208ZM14.1582 1.1058C13.4835 0.394172 12.6131 0.0035651 11.7691 2.39736e-05C10.6747 -0.00456801 9.68725 0.650563 9.36273 1.92304C8.9989 3.34991 9.9121 4.63102 10.7119 5.47363L13.7472 8.67135C13.7516 8.676 13.756 8.68057 13.7605 8.68515C13.8699 8.79465 14.0139 8.84985 14.1582 8.84985C14.2408 8.84985 14.3235 8.83185 14.3998 8.79555C14.4566 8.76847 14.5099 8.73142 14.5567 8.6844C14.561 8.68012 14.5651 8.67585 14.5692 8.6715L17.6046 5.47363C18.4044 4.63102 19.3176 3.34991 18.9538 1.92304C18.6293 0.650563 17.6418 -0.00456801 16.5473 2.39736e-05C15.7034 0.0035651 14.8329 0.394172 14.1582 1.1058ZM22.0469 10.3626L19.5912 13.0462C19.5877 13.3822 19.5056 13.7269 19.3348 14.0485C18.6331 15.3706 16.649 16.2079 13.1152 15.7171C12.8075 15.6743 12.5927 15.3902 12.6354 15.0825C12.6782 14.7748 12.9623 14.56 13.2699 14.6027C16.6886 15.0775 17.991 14.1807 18.3411 13.5211C18.7131 12.8203 18.2553 12.2355 17.7723 12.2295C15.9818 12.2074 14.5528 12.1388 13.3918 12.0831C13.0583 12.0671 12.747 12.0522 12.4557 12.0397C11.1323 11.983 10.2562 11.9803 9.53432 12.1293C8.19112 12.4065 7.29667 13.2204 5.09655 15.8112L8.20643 18.9211C8.5345 18.607 8.9671 18.412 9.3343 18.2947C9.83148 18.1359 10.3772 18.0661 10.7649 18.1002C10.794 18.0995 10.8233 18.101 10.853 18.105C13.7427 18.4903 15.7388 18.604 17.1469 18.4551C18.5394 18.3079 19.2833 17.9124 19.7606 17.3376C19.7717 17.3243 19.7833 17.3115 19.7955 17.2993L19.7971 17.2978L19.8032 17.2916L19.8288 17.2656C19.8516 17.2423 19.8858 17.2072 19.9298 17.1614C20.0178 17.0698 20.1451 16.9351 20.3 16.7655C20.6102 16.4257 21.0293 15.9475 21.4653 15.3937C22.3556 14.2628 23.2486 12.8997 23.5077 11.7769C23.7654 10.6603 23.4087 10.2601 23.1684 10.135C22.862 9.97552 22.3802 10.0381 22.0469 10.3626ZM10.7804 19.2302C13.6451 19.6096 15.7296 19.7362 17.2651 19.5739C18.8181 19.4098 19.8804 18.9421 20.6096 18.076L20.6319 18.0534C20.6574 18.0274 20.6944 17.9894 20.7413 17.9406C20.8351 17.8429 20.9688 17.7014 21.1307 17.524C21.4543 17.1697 21.8922 16.6702 22.3493 16.0896C23.2454 14.9513 24.2837 13.4176 24.6038 12.0298C24.9256 10.6359 24.558 9.5901 23.6879 9.1371C22.8864 8.71987 21.8771 8.94457 21.2451 9.57337C21.2388 9.57952 21.2327 9.5859 21.2267 9.59242L19.1987 11.8087C18.8871 11.3924 18.4019 11.1122 17.7861 11.1046C16.0179 11.0827 14.6148 11.0155 13.4555 10.9598C13.1187 10.9437 12.8023 10.9285 12.5037 10.9157C11.1943 10.8597 10.1844 10.8464 9.307 11.0275C7.54235 11.3917 6.41116 12.5256 4.28424 15.0297C3.47664 14.4278 2.32861 14.4936 1.59534 15.2269L1.32284 15.4993C0.506622 16.3156 0.519139 17.6427 1.35061 18.4434L5.7615 22.6909C6.54086 23.4414 7.76767 23.4621 8.57185 22.7383L8.77277 22.5575C9.59755 21.8152 9.67945 20.566 8.99447 19.7245C9.1327 19.5961 9.36115 19.4671 9.6766 19.3664C10.1076 19.2287 10.526 19.1998 10.6993 19.2245C10.7265 19.2284 10.7537 19.2303 10.7804 19.2302ZM2.39084 16.0223C2.75696 15.6562 3.35054 15.6562 3.71667 16.0223L8.05591 20.3616C8.43572 20.7414 8.41938 21.362 8.02016 21.7213L7.81929 21.9021C7.45374 22.2311 6.8961 22.2217 6.54185 21.8806L2.13096 17.633C1.75302 17.2691 1.74733 16.6658 2.11834 16.2948L2.39084 16.0223Z" fill="#5CC138"/>
</g>
<defs>
<clipPath id="clip0_11_2658">
<rect width="24" height="24" fill="white" transform="translate(0.71875)"/>
</clipPath>
</defs>
</svg>
