<svg width="25" height="24" viewBox="0 0 25 24" fill="none" xmlns="http://www.w3.org/2000/svg">
<g clip-path="url(#clip0_11_2652)">
<path d="M21.1027 2.00074H19.1017V0.666525C19.1017 0.298414 18.8033 0 18.4352 0C18.0671 0 17.7687 0.298414 17.7687 0.666525V2.00074H7.10306V0.6666C7.10306 0.298447 6.80461 0 6.43646 0C6.0683 0 5.76986 0.298447 5.76986 0.6666V2.00074H3.7712C1.93363 2.00074 0.437012 3.49601 0.437012 5.33464V20.6661C0.437012 22.5036 1.93241 24 3.7712 24H21.1029C22.9404 24 24.4371 22.5048 24.4371 20.6661L24.4359 8.66625V5.33237C24.4348 3.49495 22.9393 2.00074 21.1027 2.00074ZM23.1013 20.6638C23.1013 21.7659 22.2048 22.6623 21.1027 22.6623H3.77106C2.66673 22.6623 1.77014 21.7659 1.77014 20.6638V8.66595H23.1012L23.1013 20.6638ZM23.1013 7.33306H1.77029V5.33231C1.77029 4.2292 2.66685 3.33157 3.7712 3.33157H5.77211V3.99916C5.77211 4.36669 6.07005 4.66465 6.4376 4.66465C6.80513 4.66465 7.10309 4.36669 7.10309 3.99916V3.33379H17.7687V4.00027C17.7687 4.36842 18.0671 4.66687 18.4353 4.66687C18.8034 4.66687 19.1019 4.36842 19.1019 4.00027V3.33379H21.1027C22.2048 3.33379 23.1013 4.22917 23.1013 5.33228V7.33306Z" fill="#5CC138"/>
</g>
<defs>
<clipPath id="clip0_11_2652">
<rect width="24" height="24" fill="white" transform="translate(0.4375)"/>
</clipPath>
</defs>
</svg>
