<svg width="25" height="24" viewBox="0 0 25 24" fill="none" xmlns="http://www.w3.org/2000/svg">
<g clip-path="url(#clip0_11_2642)">
<path fill-rule="evenodd" clip-rule="evenodd" d="M16.467 5.76C16.467 8.11275 14.5598 10.02 12.207 10.02C9.85428 10.02 7.94704 8.11275 7.94704 5.76C7.94704 3.40726 9.85428 1.5 12.207 1.5C14.5598 1.5 16.467 3.40726 16.467 5.76ZM17.967 5.76C17.967 8.94112 15.3882 11.52 12.207 11.52C9.02588 11.52 6.44704 8.94112 6.44704 5.76C6.44704 2.57884 9.02588 0 12.207 0C15.3882 0 17.967 2.57884 17.967 5.76ZM20.2196 17.3185C21.167 19.0513 21.1368 21.1459 20.96 22.5H12.5283H3.8773C3.73297 21.1422 3.755 19.0541 4.746 17.3233C5.69703 15.6624 7.74765 13.98 12.5283 13.98C17.3243 13.98 19.3189 15.6712 20.2196 17.3185ZM22.4209 22.8857C22.3238 23.5518 21.7361 24 21.0629 24H12.5283H3.76984C3.08542 24 2.49145 23.5379 2.40853 22.8585C2.05331 19.9484 2.15251 12.48 12.5283 12.48C22.9366 12.48 22.8422 19.995 22.4209 22.8857Z" fill="#5CC138"/>
</g>
<defs>
<clipPath id="clip0_11_2642">
<rect width="24" height="24" fill="white" transform="translate(0.4375)"/>
</clipPath>
</defs>
</svg>
