<svg width="25" height="24" viewBox="0 0 25 24" fill="none" xmlns="http://www.w3.org/2000/svg">
<g clip-path="url(#clip0_11_2346)">
<path d="M9.72362 1.5C5.20112 1.5 1.51562 5.298 1.51562 9.9585C1.51562 14.619 5.20112 18.4155 9.72362 18.4155C11.6154 18.4129 13.4453 17.7413 14.8896 16.5195L20.4456 22.2435C20.7756 22.5855 21.3156 22.5855 21.6486 22.2435C21.8081 22.0785 21.8972 21.858 21.8972 21.6285C21.8972 21.399 21.8081 21.1785 21.6486 21.0135L16.0926 15.2895C17.2895 13.7708 17.9381 11.8922 17.9331 9.9585C17.9331 5.298 14.2476 1.5 9.72362 1.5ZM9.72362 3.2505C13.3296 3.2505 16.2336 6.243 16.2336 9.9585C16.2336 13.6725 13.3296 16.6665 9.72362 16.6665C6.11912 16.6665 3.21362 13.6725 3.21362 9.9585C3.21362 6.243 6.11912 3.2505 9.72362 3.2505Z" fill="#003462"/>
</g>
<defs>
<clipPath id="clip0_11_2346">
<rect width="24" height="24" fill="white" transform="translate(0.015625)"/>
</clipPath>
</defs>
</svg>
